<svg width="269" height="382" viewBox="0 0 269 382" fill="none" xmlns="http://www.w3.org/2000/svg">
<path d="M-98.0905 188.431C-98.17 185.671 -100.472 183.498 -103.232 183.577C-105.993 183.657 -108.166 185.959 -108.086 188.719L-98.0905 188.431ZM70.8048 184.199L74.1048 187.955C74.1964 187.875 74.285 187.791 74.3705 187.704L70.8048 184.199ZM242.644 184.381C245.161 185.515 248.122 184.394 249.257 181.877L267.744 140.85C268.879 138.332 267.758 135.372 265.24 134.237C262.722 133.103 259.762 134.224 258.627 136.741L242.194 173.21L205.725 156.776C203.208 155.642 200.247 156.763 199.113 159.28C197.978 161.798 199.099 164.759 201.617 165.893L242.644 184.381ZM-107.539 199.256C-107.327 202.009 -104.924 204.069 -102.17 203.858C-99.4171 203.646 -97.3568 201.242 -97.5684 198.489L-107.539 199.256ZM-94.7964 218.11C-95.3914 215.413 -98.0597 213.709 -100.756 214.304C-103.453 214.899 -105.156 217.568 -104.561 220.264L-94.7964 218.11ZM-97.4162 240.845C-96.143 243.295 -93.1245 244.249 -90.6741 242.976C-88.2237 241.703 -87.2693 238.684 -88.5425 236.234L-97.4162 240.845ZM-76.9866 249.813C-79.283 248.279 -82.3878 248.898 -83.9214 251.194C-85.4549 253.49 -84.8365 256.595 -82.54 258.129L-76.9866 249.813ZM-60.5476 264.83C-57.7876 264.919 -55.4779 262.754 -55.3888 259.994C-55.2997 257.234 -57.4649 254.924 -60.2249 254.835L-60.5476 264.83ZM-41.4743 252.136C-44.1291 252.896 -45.6649 255.665 -44.9048 258.32C-44.1446 260.974 -41.3763 262.51 -38.7216 261.75L-41.4743 252.136ZM-18.8513 254.113C-16.3529 252.937 -15.2812 249.958 -16.4575 247.459C-17.6338 244.961 -20.6127 243.889 -23.111 245.066L-18.8513 254.113ZM-5.41409 235.583C-7.78778 236.994 -8.56817 240.062 -7.15712 242.436C-5.74607 244.81 -2.67793 245.59 -0.304246 244.179L-5.41409 235.583ZM17.2425 232.927C19.5211 231.367 20.1038 228.255 18.5438 225.976C16.9839 223.698 13.8722 223.115 11.5935 224.675L17.2425 232.927ZM28.0987 212.779C25.8944 214.442 25.4559 217.577 27.1192 219.782C28.7825 221.986 31.9178 222.424 34.1221 220.761L28.0987 212.779ZM50.3811 208.022C52.5261 206.283 52.8551 203.134 51.1159 200.99C49.3767 198.845 46.2281 198.516 44.0831 200.255L50.3811 208.022ZM59.7496 187.176C57.6535 188.974 57.4117 192.13 59.2095 194.226C61.0073 196.322 64.1638 196.564 66.2599 194.766L59.7496 187.176ZM80.9686 181.112C82.9402 179.179 82.9713 176.013 81.0379 174.041C79.1045 172.07 75.9388 172.038 73.9672 173.972L80.9686 181.112ZM87.8196 160.944C85.7659 162.79 85.5976 165.952 87.4437 168.005C89.2897 170.059 92.4511 170.227 94.5047 168.381L87.8196 160.944ZM108.586 156.383C110.739 154.654 111.083 151.507 109.353 149.354C107.624 147.201 104.477 146.857 102.324 148.586L108.586 156.383ZM117.653 137.136C115.378 138.701 114.803 141.815 116.369 144.089C117.934 146.364 121.048 146.939 123.322 145.373L117.653 137.136ZM138.822 135.774C141.246 134.45 142.137 131.413 140.813 128.989C139.49 126.566 136.452 125.674 134.028 126.998L138.822 135.774ZM151.784 118.871C149.189 119.815 147.85 122.683 148.793 125.279C149.737 127.874 152.605 129.213 155.201 128.27L151.784 118.871ZM172.268 124.048C175.009 123.719 176.965 121.23 176.636 118.488C176.307 115.746 173.818 113.79 171.076 114.119L172.268 124.048ZM191.386 114.876C188.684 114.308 186.033 116.038 185.465 118.74C184.896 121.443 186.627 124.094 189.329 124.662L191.386 114.876ZM204.957 131.075C207.288 132.555 210.378 131.865 211.858 129.534C213.338 127.203 212.648 124.113 210.317 122.633L204.957 131.075ZM225.499 135.8C223.671 133.731 220.511 133.535 218.441 135.363C216.371 137.191 216.176 140.351 218.004 142.42L225.499 135.8ZM228.385 156.89C229.793 159.266 232.86 160.05 235.235 158.642C237.611 157.234 238.395 154.167 236.987 151.792L228.385 156.89ZM245.748 169.106C244.648 166.572 241.703 165.41 239.17 166.51C236.637 167.61 235.475 170.554 236.575 173.087L245.748 169.106ZM-108.086 188.719C-107.981 192.359 -107.799 195.872 -107.539 199.256L-97.5684 198.489C-97.8155 195.276 -97.9898 191.924 -98.0905 188.431L-108.086 188.719ZM-104.561 220.264C-102.839 228.071 -100.476 234.955 -97.4162 240.845L-88.5425 236.234C-91.1123 231.288 -93.2165 225.269 -94.7964 218.11L-104.561 220.264ZM-82.54 258.129C-76.1768 262.378 -68.786 264.564 -60.5476 264.83L-60.2249 254.835C-66.8363 254.622 -72.3636 252.9 -76.9866 249.813L-82.54 258.129ZM-38.7216 261.75C-32.4644 259.958 -25.8384 257.403 -18.8513 254.113L-23.111 245.066C-29.7104 248.173 -35.829 250.52 -41.4743 252.136L-38.7216 261.75ZM-0.304246 244.179C5.32856 240.831 11.1777 237.079 17.2425 232.927L11.5935 224.675C5.68294 228.721 0.0139814 232.356 -5.41409 235.583L-0.304246 244.179ZM34.1221 220.761C39.3939 216.783 44.8137 212.536 50.3811 208.022L44.0831 200.255C38.5982 204.702 33.2701 208.876 28.0987 212.779L34.1221 220.761ZM66.2599 194.766C68.8456 192.548 71.4606 190.278 74.1048 187.955L67.5049 180.442C64.8894 182.74 62.3043 184.985 59.7496 187.176L66.2599 194.766ZM74.3705 187.704C76.5895 185.447 78.7888 183.249 80.9686 181.112L73.9672 173.972C71.7422 176.154 69.4995 178.394 67.2391 180.694L74.3705 187.704ZM94.5047 168.381C99.3041 164.067 103.998 160.068 108.586 156.383L102.324 148.586C97.5791 152.398 92.7442 156.517 87.8196 160.944L94.5047 168.381ZM123.322 145.373C128.658 141.701 133.824 138.504 138.822 135.774L134.028 126.998C128.695 129.911 123.236 133.293 117.653 137.136L123.322 145.373ZM155.201 128.27C161.203 126.087 166.889 124.694 172.268 124.048L171.076 114.119C164.836 114.868 158.402 116.465 151.784 118.871L155.201 128.27ZM189.329 124.662C194.824 125.817 200.026 127.945 204.957 131.075L210.317 122.633C204.406 118.88 198.089 116.285 191.386 114.876L189.329 124.662ZM218.004 142.42C221.632 146.528 225.097 151.343 228.385 156.89L236.987 151.792C233.425 145.783 229.6 140.444 225.499 135.8L218.004 142.42ZM236.575 173.087C237.755 175.808 238.905 178.643 240.022 181.593L249.374 178.052C248.204 174.961 246.995 171.979 245.748 169.106L236.575 173.087Z" fill="#6C63FF"/>
</svg>
