<svg width="320" height="323" viewBox="0 0 320 323" fill="none" xmlns="http://www.w3.org/2000/svg">
<path d="M16.1766 165.787C17.1337 168.377 20.0094 169.701 22.5996 168.744L64.8105 153.147C67.4007 152.19 68.7247 149.315 67.7677 146.724C66.8106 144.134 63.9349 142.81 61.3446 143.767L23.8239 157.631L9.9605 120.11C9.00344 117.52 6.12776 116.196 3.53749 117.153C0.947218 118.11 -0.376752 120.985 0.580315 123.576L16.1766 165.787ZM169.824 155.554L174.004 152.809C173.94 152.713 173.873 152.618 173.804 152.527L169.824 155.554ZM323.658 148.156C324.267 145.463 322.577 142.786 319.884 142.177C317.19 141.568 314.513 143.257 313.904 145.951L323.658 148.156ZM29.7324 157.181C30.9793 154.717 29.9928 151.709 27.5289 150.462C25.065 149.215 22.0568 150.202 20.8099 152.665L29.7324 157.181ZM30.9898 134.647C29.5084 136.978 30.1966 140.068 32.5271 141.549C34.8575 143.031 37.9476 142.342 39.429 140.012L30.9898 134.647ZM50.9664 124.364C52.7802 122.282 52.5627 119.124 50.4805 117.31C48.3982 115.496 45.2399 115.714 43.4261 117.796L50.9664 124.364ZM59.2273 103.362C56.9578 104.935 56.3933 108.05 57.9665 110.32C59.5396 112.589 62.6547 113.154 64.9242 111.581L59.2273 103.362ZM81.4544 104.132C84.152 103.541 85.8601 100.876 85.2697 98.1781C84.6792 95.4805 82.0138 93.7723 79.3162 94.3628L81.4544 104.132ZM101.496 94.4829C98.7983 93.8933 96.1334 95.6023 95.5438 98.3C94.9542 100.998 96.6632 103.663 99.3609 104.252L101.496 94.4829ZM116.659 111.145C119.06 112.509 122.112 111.667 123.476 109.266C124.839 106.864 123.998 103.813 121.596 102.449L116.659 111.145ZM138.835 114.608C136.72 112.834 133.566 113.111 131.791 115.226C130.017 117.342 130.294 120.496 132.41 122.27L138.835 114.608ZM146.642 135.774C148.541 137.778 151.706 137.863 153.71 135.964C155.715 134.064 155.799 130.899 153.9 128.895L146.642 135.774ZM167.46 144.438C165.723 142.292 162.574 141.961 160.428 143.699C158.282 145.436 157.951 148.585 159.688 150.731L167.46 144.438ZM171.272 166.711C172.827 168.993 175.938 169.582 178.219 168.026C180.501 166.47 181.09 163.36 179.534 161.078L171.272 166.711ZM191.013 177.202C189.362 174.989 186.229 174.534 184.016 176.185C181.803 177.837 181.347 180.97 182.999 183.183L191.013 177.202ZM195.564 199.086C197.342 201.199 200.496 201.47 202.609 199.692C204.722 197.914 204.993 194.759 203.215 192.647L195.564 199.086ZM216.372 207.067C214.418 205.116 211.253 205.118 209.301 207.071C207.35 209.025 207.352 212.191 209.305 214.142L216.372 207.067ZM224.849 227.779C227.059 229.435 230.193 228.985 231.848 226.775C233.503 224.564 233.054 221.431 230.843 219.775L224.849 227.779ZM246.911 229.088C244.341 228.079 241.439 229.345 240.43 231.915C239.421 234.486 240.687 237.388 243.257 238.397L246.911 229.088ZM265.362 241.365C268.093 240.958 269.977 238.414 269.569 235.682C269.162 232.951 266.618 231.067 263.886 231.475L265.362 241.365ZM279.11 224.093C277.016 225.893 276.777 229.05 278.577 231.144C280.377 233.238 283.534 233.477 285.628 231.677L279.11 224.093ZM299.304 215.191C300.766 212.849 300.052 209.764 297.709 208.302C295.367 206.841 292.282 207.555 290.821 209.897L299.304 215.191ZM299.534 192.826C298.455 195.367 299.64 198.303 302.181 199.383C304.723 200.463 307.658 199.278 308.738 196.736L299.534 192.826ZM315.785 177.535C316.623 174.904 315.17 172.091 312.539 171.253C309.908 170.414 307.096 171.867 306.257 174.498L315.785 177.535ZM311.61 155.573C310.936 158.251 312.561 160.968 315.239 161.642C317.917 162.316 320.634 160.691 321.307 158.013L311.61 155.573ZM25.4085 166.145C26.8376 163.041 28.279 160.053 29.7324 157.181L20.8099 152.665C19.2977 155.654 17.8028 158.753 16.325 161.963L25.4085 166.145ZM39.429 140.012C43.2187 134.05 47.067 128.841 50.9664 124.364L43.4261 117.796C39.1478 122.707 35.0049 128.331 30.9898 134.647L39.429 140.012ZM64.9242 111.581C70.3795 107.799 75.8862 105.35 81.4544 104.132L79.3162 94.3628C72.3254 95.8929 65.6257 98.9268 59.2273 103.362L64.9242 111.581ZM99.3609 104.252C104.876 105.458 110.64 107.727 116.659 111.145L121.596 102.449C114.854 98.6206 108.151 95.9374 101.496 94.4829L99.3609 104.252ZM132.41 122.27C137.049 126.161 141.794 130.659 146.642 135.774L153.9 128.895C148.827 123.543 143.806 118.777 138.835 114.608L132.41 122.27ZM159.688 150.731C161.725 153.247 163.777 155.863 165.844 158.581L173.804 152.527C171.679 149.733 169.564 147.036 167.46 144.438L159.688 150.731ZM165.644 158.298C167.535 161.177 169.41 163.981 171.272 166.711L179.534 161.078C177.707 158.398 175.863 155.642 174.004 152.809L165.644 158.298ZM182.999 183.183C187.264 188.899 191.453 194.201 195.564 199.086L203.215 192.647C199.243 187.928 195.176 182.781 191.013 177.202L182.999 183.183ZM209.305 214.142C214.598 219.429 219.779 223.982 224.849 227.779L230.843 219.775C226.219 216.312 221.395 212.084 216.372 207.067L209.305 214.142ZM243.257 238.397C250.799 241.357 258.201 242.433 265.362 241.365L263.886 231.475C258.76 232.239 253.135 231.531 246.911 229.088L243.257 238.397ZM285.628 231.677C290.587 227.415 295.13 221.881 299.304 215.191L290.821 209.897C287.045 215.948 283.127 220.64 279.11 224.093L285.628 231.677ZM308.738 196.736C311.22 190.894 313.568 184.491 315.785 177.535L306.257 174.498C304.12 181.204 301.877 187.311 299.534 192.826L308.738 196.736ZM321.307 158.013C322.111 154.819 322.894 151.533 323.658 148.156L313.904 145.951C313.157 149.253 312.393 152.461 311.61 155.573L321.307 158.013Z" fill="#6C63FF"/>
</svg>
