<svg width="33" height="32" viewBox="0 0 33 32" fill="none" xmlns="http://www.w3.org/2000/svg">
<path d="M11.8252 17.25L15.6392 21L21.9958 12.25M32.1664 16C32.1664 17.9698 31.7718 19.9204 31.0051 21.7403C30.2385 23.5601 29.1147 25.2137 27.6981 26.6066C26.2814 27.9995 24.5996 29.1044 22.7487 29.8582C20.8978 30.612 18.914 31 16.9105 31C14.9071 31 12.9233 30.612 11.0724 29.8582C9.22144 29.1044 7.53965 27.9995 6.12301 26.6066C4.70637 25.2137 3.58263 23.5601 2.81595 21.7403C2.04927 19.9204 1.65466 17.9698 1.65466 16C1.65466 12.0218 3.26197 8.20644 6.12301 5.3934C8.98404 2.58035 12.8644 1 16.9105 1C20.9567 1 24.837 2.58035 27.6981 5.3934C30.5591 8.20644 32.1664 12.0218 32.1664 16Z" stroke="black" stroke-width="1.5" stroke-linecap="round" stroke-linejoin="round"/>
</svg>
