<svg width="400" height="333" viewBox="0 0 400 333" fill="none" xmlns="http://www.w3.org/2000/svg">
<g clip-path="url(#clip0_28_53)">
<path d="M332.773 314.415L332.081 323.649L317.999 319.032L323.769 312.106L332.773 314.415Z" fill="#FEB8B8"/>
<path d="M384.024 311.414L383.33 320.416L375.481 321.571L370.864 317.185L376.173 308.643L384.024 311.414Z" fill="#FEB8B8"/>
<path d="M389.795 196.448C389.795 196.448 396.028 203.835 388.178 215.147C380.329 226.459 370.865 237.54 370.865 237.54L353.317 270.783C353.317 270.783 344.314 303.334 342.236 304.257C340.159 305.18 339.005 301.487 340.159 305.411C341.313 309.335 340.62 309.105 339.697 309.337C338.774 309.568 336.234 309.106 337.158 310.722C338.081 312.338 338.774 312.338 336.927 312.338C335.08 312.338 334.387 311.184 334.387 312.8C334.387 314.415 332.771 318.109 332.771 318.109C332.771 318.109 321.459 314.878 320.998 313.492C320.536 312.107 323.999 311.415 323.306 310.03C322.614 308.645 322.383 308.644 322.383 306.567C322.383 304.49 323.768 304.028 323.768 304.028C323.768 304.028 324.922 303.566 324.461 302.642C323.999 301.719 322.152 302.181 324.461 301.026C326.769 299.872 336.235 264.551 336.235 264.551C336.235 264.551 336.235 247.003 339.236 241.233C342.237 235.463 339.929 194.37 347.088 193.908C354.246 193.447 389.795 196.448 389.795 196.448Z" fill="#2F2E41"/>
<path d="M387.486 209.606L386.101 245.389C386.101 245.389 393.026 280.017 390.718 290.636C388.409 301.255 390.025 299.87 388.64 301.717C387.255 303.564 386.101 302.64 387.255 304.257C388.409 305.873 389.099 306.334 387.255 308.182C385.41 310.03 384.485 314.415 384.485 314.415L372.711 313.261C372.711 313.261 375.712 307.952 374.556 306.797C373.399 305.643 370.4 307.49 372.711 304.953C375.022 302.416 376.405 303.567 375.02 302.413C373.634 301.259 371.557 301.721 373.403 299.874C375.25 298.027 377.329 298.03 375.481 297.335C373.633 296.64 371.556 297.335 372.48 295.949C373.405 294.564 374.558 292.948 374.558 292.948L371.788 271.941C371.788 271.941 368.556 265.015 369.479 262.014C370.402 259.013 365.554 234.311 365.554 234.311L387.486 209.606Z" fill="#2F2E41"/>
<path d="M382.408 316.03C382.408 316.03 384.717 313.722 385.409 315.107C386.102 316.492 391.179 328.958 388.179 329.881C385.179 330.805 380.792 331.726 378.484 331.036C376.175 330.345 371.327 327.11 365.556 327.11C359.785 327.11 354.937 324.57 354.937 323.647C354.937 322.724 354.014 317.183 358.4 317.183C362.785 317.183 370.866 312.105 370.866 312.105C370.866 312.105 372.71 308.411 373.636 308.642C374.561 308.873 373.867 316.26 373.867 316.26C373.867 316.26 379.175 321.34 382.408 316.03Z" fill="#2F2E41"/>
<path d="M331.158 319.031C331.158 319.031 333.235 313.952 335.313 315.106C337.391 316.259 336.005 330.572 336.005 330.572C336.005 330.572 334.161 333.573 328.849 332.88C323.537 332.188 309.457 330.572 306.225 331.264C302.993 331.956 294.221 328.032 296.529 322.722C296.529 322.722 297.683 319.721 303.224 319.952C308.765 320.183 318.922 313.488 318.922 313.488C318.922 313.488 320.538 308.871 321 309.332C321.462 309.794 321.923 317.874 321.923 317.874C321.923 317.874 327.926 321.801 331.158 319.031Z" fill="#2F2E41"/>
<path d="M361.4 106.184C368.795 106.184 374.789 100.189 374.789 92.7943C374.789 85.3994 368.795 79.4046 361.4 79.4046C354.005 79.4046 348.01 85.3994 348.01 92.7943C348.01 100.189 354.005 106.184 361.4 106.184Z" fill="#FEB8B8"/>
<path d="M371.788 93.7175C371.788 93.7175 378.944 108.03 381.484 109.416C384.023 110.801 364.17 119.343 364.17 119.343C364.17 119.343 360.938 105.261 357.013 102.26C353.089 99.2588 371.788 93.7175 371.788 93.7175Z" fill="#FEB8B8"/>
<path d="M351.242 210.76L350.319 219.533C350.319 219.533 340.392 216.07 343.624 209.606L351.242 210.76Z" fill="#FEB8B8"/>
<path d="M347.319 197.602C354.244 204.987 390.949 198.754 390.949 198.754L390.489 193.445L395.106 188.6L393.722 165.975C393.722 165.975 397.874 155.357 398.566 139.197C398.608 138.204 398.548 137.209 398.387 136.228C396.008 121.752 372.436 112.428 371.788 112.647C371.462 112.754 367.993 114.563 364.372 116.465C360.215 118.649 355.861 120.958 355.861 120.958C350.32 123.039 351.244 156.283 349.396 159.283C347.547 162.284 349.396 172.668 349.396 172.668L347.319 182.594C347.319 182.594 340.391 190.217 347.319 197.602Z" fill="#F0F0F0"/>
<path opacity="0.1" d="M369.693 124.315C369.693 124.315 376.157 143.706 374.771 156.865C373.386 170.024 358.381 207.653 358.381 207.653L353.304 210.424V216.887L349.732 207.211L359.555 186.671C359.555 186.671 347.298 115.773 369.693 124.315Z" fill="black"/>
<path opacity="0.1" d="M363.63 118.496C370.328 114.803 380.486 124.503 391.105 134.888C394.918 138.616 397.124 138.241 398.388 136.227C396.008 121.751 372.437 112.428 371.789 112.647C371.463 112.754 367.994 114.562 364.373 116.464L363.63 118.496Z" fill="black"/>
<path d="M363.633 116.712L366.404 109.094C366.404 109.094 385.334 100.09 397.8 109.094L399.877 122.021C399.877 122.021 401.722 143.491 391.105 133.102C380.488 122.714 370.327 113.018 363.633 116.712Z" fill="#F0F0F0"/>
<path d="M369.018 121.189C369.018 121.189 375.482 140.581 374.097 153.74C372.711 166.899 357.706 204.528 357.706 204.528L352.627 207.3V213.764L342.008 210.763L344.317 203.145C344.317 203.145 340.623 198.528 343.163 197.143C345.703 195.757 345.241 188.139 345.241 188.139C345.241 188.139 346.625 112.648 369.018 121.189Z" fill="#F0F0F0"/>
<path d="M373.336 98.3994C373.118 97.3646 373.147 96.2512 372.651 95.3171C371.908 93.9166 370.198 93.3306 368.618 93.1925C366.6 93.0171 364.568 93.3661 362.548 93.228C360.528 93.0899 358.37 92.3199 357.365 90.5628C356.964 89.8619 356.766 89.0366 356.234 88.4288C355.127 87.1641 353.108 87.3599 351.517 87.9019C349.926 88.4439 348.267 89.2357 346.64 88.8119C345.272 84.9851 346.957 80.5709 349.87 77.7374C352.783 74.9038 356.711 73.379 360.613 72.2424C365.759 70.7431 371.551 69.8573 376.282 72.3758C383.144 76.0276 385.565 85.6936 384.932 92.8979C384.693 95.6212 384.302 98.705 382.1 100.543C378.873 103.238 374.311 103.007 373.336 98.3994Z" fill="#2F2E41"/>
<path d="M289.325 0.164124H0.123924V185.381H289.325V0.164124Z" fill="#E6E6E6"/>
<path d="M282.001 23.3948H9.33921V174.424H282.001V23.3948Z" fill="white"/>
<path d="M289.201 0H0V12.2863H289.201V0Z" fill="#6C63FF"/>
<path d="M9.13064 8.55883C10.3884 8.55883 11.408 7.53923 11.408 6.28149C11.408 5.02375 10.3884 4.00415 9.13064 4.00415C7.8729 4.00415 6.8533 5.02375 6.8533 6.28149C6.8533 7.53923 7.8729 8.55883 9.13064 8.55883Z" fill="white"/>
<path d="M17.7741 8.55883C19.0319 8.55883 20.0515 7.53923 20.0515 6.28149C20.0515 5.02375 19.0319 4.00415 17.7741 4.00415C16.5164 4.00415 15.4968 5.02375 15.4968 6.28149C15.4968 7.53923 16.5164 8.55883 17.7741 8.55883Z" fill="white"/>
<path d="M26.4176 8.55883C27.6753 8.55883 28.6949 7.53923 28.6949 6.28149C28.6949 5.02375 27.6753 4.00415 26.4176 4.00415C25.1599 4.00415 24.1403 5.02375 24.1403 6.28149C24.1403 7.53923 25.1599 8.55883 26.4176 8.55883Z" fill="white"/>
<path d="M57.0422 44.5635L39.0066 62.374L57.0422 80.1841L61.1003 76.126L47.4623 62.4861L61.2143 48.7341L57.0422 44.5635Z" fill="#6C63FF"/>
<path d="M71.8201 44.5635L89.8553 62.374L71.8201 80.1841L67.762 76.126L81.401 62.4866L67.6481 48.7341L71.8201 44.5635Z" fill="#6C63FF"/>
<path d="M130.158 49.033C128.683 49.033 127.487 49.8815 127.487 50.9277C127.487 51.9739 128.683 52.8224 130.158 52.8224H256.068C257.543 52.8224 258.739 51.9739 258.739 50.9277C258.739 49.8815 257.543 49.033 256.068 49.033H130.158Z" fill="#E6E6E6"/>
<path d="M254.816 152.839H43.0036C40.8384 152.839 39.0837 151.589 39.0813 150.049V112.665C39.0837 111.124 40.8384 109.874 43.0036 109.874H254.816C256.982 109.874 258.736 111.124 258.739 112.665V150.048C258.737 151.589 256.982 152.838 254.816 152.839ZM43.0036 110.989C41.7044 110.989 40.6516 111.739 40.6501 112.664V150.047C40.6501 150.972 41.7044 151.721 43.0036 151.722H254.816C256.116 151.722 257.168 150.972 257.17 150.047V112.665C257.17 111.74 256.116 110.991 254.816 110.99L43.0036 110.989Z" fill="#E6E6E6"/>
<path d="M64.8155 140.817C70.0491 140.817 74.2918 136.574 74.2918 131.341C74.2918 126.107 70.0491 121.864 64.8155 121.864C59.5818 121.864 55.3391 126.107 55.3391 131.341C55.3391 136.574 59.5818 140.817 64.8155 140.817Z" fill="#E6E6E6"/>
<path d="M91.5428 123.762C91.0403 123.761 90.5582 123.96 90.2024 124.315C89.8466 124.67 89.6463 125.152 89.6457 125.654C89.645 126.157 89.844 126.639 90.1989 126.995C90.5538 127.35 91.0354 127.551 91.538 127.551H180.868C181.37 127.551 181.852 127.352 182.208 126.996C182.563 126.641 182.763 126.159 182.763 125.657C182.763 125.154 182.563 124.672 182.208 124.317C181.852 123.961 181.37 123.762 180.868 123.762H91.5428Z" fill="#6C63FF"/>
<path d="M91.5428 135.131C91.294 135.13 91.0476 135.179 90.8176 135.274C90.5876 135.369 90.3785 135.508 90.2024 135.684C89.8466 136.039 89.6463 136.52 89.6457 137.023C89.645 137.525 89.844 138.007 90.1989 138.363C90.5538 138.719 91.0354 138.919 91.538 138.92H129.979C130.482 138.921 130.964 138.722 131.319 138.367C131.675 138.012 131.876 137.53 131.876 137.028C131.877 136.525 131.678 136.043 131.323 135.687C130.968 135.331 130.486 135.131 129.984 135.131H91.5428Z" fill="#6C63FF"/>
<path d="M129.238 60.3842C128.762 60.4226 128.318 60.6389 127.994 60.99C127.67 61.341 127.49 61.8012 127.49 62.2789C127.49 62.7566 127.67 63.2168 127.994 63.5679C128.318 63.919 128.762 64.1352 129.238 64.1736H211.757C212.233 64.1352 212.677 63.919 213.001 63.5679C213.325 63.2168 213.505 62.7566 213.505 62.2789C213.505 61.8012 213.325 61.341 213.001 60.99C212.677 60.6389 212.233 60.4226 211.757 60.3842H129.238Z" fill="#E6E6E6"/>
<path d="M129.781 71.7354C128.514 71.7354 127.487 72.5839 127.487 73.6301C127.487 74.6763 128.514 75.5248 129.781 75.5248H237.949C239.216 75.5248 240.243 74.6763 240.243 73.6301C240.243 72.5839 239.216 71.7354 237.949 71.7354H129.781Z" fill="#E6E6E6"/>
</g>
<defs>
<clipPath id="clip0_28_53">
<rect width="400" height="332.984" fill="white"/>
</clipPath>
</defs>
</svg>
