<svg xmlns="http://www.w3.org/2000/svg" xmlns:xlink="http://www.w3.org/1999/xlink" width="500" zoomAndPan="magnify" viewBox="0 0 375 374.999991" height="500" preserveAspectRatio="xMidYMid meet" version="1.0"><defs><g/><clipPath id="77e0a14370"><path d="M 82 142.253906 L 109.085938 142.253906 L 109.085938 229.253906 L 82 229.253906 Z M 82 142.253906 " clip-rule="nonzero"/></clipPath><clipPath id="dc58ac204f"><path d="M 59.734375 194.253906 L 72.785156 194.253906 L 72.785156 207.304688 L 59.734375 207.304688 Z M 59.734375 194.253906 " clip-rule="nonzero"/></clipPath><clipPath id="abe6b9bb0b"><path d="M 59.734375 200.78125 C 59.734375 204.382812 62.65625 207.304688 66.257812 207.304688 C 69.863281 207.304688 72.785156 204.382812 72.785156 200.78125 C 72.785156 197.175781 69.863281 194.253906 66.257812 194.253906 C 62.65625 194.253906 59.734375 197.175781 59.734375 200.78125 Z M 59.734375 200.78125 " clip-rule="nonzero"/></clipPath><clipPath id="c64f147aa8"><path d="M 59.734375 164.273438 L 72.785156 164.273438 L 72.785156 177.324219 L 59.734375 177.324219 Z M 59.734375 164.273438 " clip-rule="nonzero"/></clipPath><clipPath id="95244d0e06"><path d="M 59.734375 170.796875 C 59.734375 174.402344 62.65625 177.324219 66.257812 177.324219 C 69.863281 177.324219 72.785156 174.402344 72.785156 170.796875 C 72.785156 167.195312 69.863281 164.273438 66.257812 164.273438 C 62.65625 164.273438 59.734375 167.195312 59.734375 170.796875 Z M 59.734375 170.796875 " clip-rule="nonzero"/></clipPath></defs><rect x="-37.5" width="450" fill="#ffffff" y="-37.499999" height="449.999989" fill-opacity="1"/><rect x="-37.5" width="450" fill="#f0f0f0" y="-37.499999" height="449.999989" fill-opacity="1"/><g clip-path="url(#77e0a14370)"><path fill="#6c63ff" d="M 84.929688 219.597656 L 82.511719 219.597656 L 82.511719 229.253906 L 84.929688 229.253906 C 92.929688 229.253906 99.414062 222.769531 99.414062 214.769531 L 99.414062 197.867188 C 99.414062 196.347656 100.128906 194.917969 101.34375 194.003906 L 107.140625 189.660156 C 108.300781 188.789062 109.007812 187.445312 109.066406 185.996094 C 109.128906 184.546875 108.535156 183.148438 107.449219 182.1875 L 101.035156 176.484375 C 100.003906 175.570312 99.414062 174.253906 99.414062 172.875 L 99.414062 156.824219 C 99.414062 148.824219 92.929688 142.335938 84.929688 142.335938 L 82.511719 142.335938 L 82.511719 151.996094 L 84.929688 151.996094 C 87.59375 151.996094 89.757812 154.15625 89.757812 156.824219 L 89.757812 172.875 C 89.757812 177.015625 91.527344 180.953125 94.621094 183.703125 L 96.617188 185.480469 L 95.550781 186.277344 C 91.902344 189.015625 89.757812 193.308594 89.757812 197.867188 L 89.757812 214.769531 C 89.757812 217.433594 87.59375 219.597656 84.929688 219.597656 Z M 84.929688 219.597656 " fill-opacity="1" fill-rule="evenodd"/></g><g clip-path="url(#dc58ac204f)"><g clip-path="url(#abe6b9bb0b)"><path fill="#6c63ff" d="M 59.734375 207.304688 L 59.734375 194.253906 L 72.785156 194.253906 L 72.785156 207.304688 Z M 59.734375 207.304688 " fill-opacity="1" fill-rule="nonzero"/></g></g><g clip-path="url(#c64f147aa8)"><g clip-path="url(#95244d0e06)"><path fill="#6c63ff" d="M 59.734375 177.324219 L 59.734375 164.273438 L 72.785156 164.273438 L 72.785156 177.324219 Z M 59.734375 177.324219 " fill-opacity="1" fill-rule="nonzero"/></g></g><g fill="#414244" fill-opacity="1"><g transform="translate(124.78857, 179.067118)"><g><path d="M 18.234375 0.671875 C 15.859375 0.671875 13.65625 0.257812 11.625 -0.5625 C 9.59375 -1.394531 7.835938 -2.546875 6.359375 -4.015625 C 4.878906 -5.492188 3.726562 -7.25 2.90625 -9.28125 C 2.082031 -11.3125 1.671875 -13.519531 1.671875 -15.90625 C 1.671875 -18.289062 2.085938 -20.5 2.921875 -22.53125 C 3.765625 -24.5625 4.925781 -26.320312 6.40625 -27.8125 C 7.882812 -29.300781 9.628906 -30.46875 11.640625 -31.3125 C 13.660156 -32.15625 15.84375 -32.578125 18.1875 -32.578125 C 20.664062 -32.578125 22.96875 -32.097656 25.09375 -31.140625 C 27.226562 -30.191406 29.070312 -28.828125 30.625 -27.046875 L 25.765625 -22.34375 C 24.847656 -23.414062 23.757812 -24.257812 22.5 -24.875 C 21.25 -25.5 19.878906 -25.8125 18.390625 -25.8125 C 17.015625 -25.8125 15.753906 -25.566406 14.609375 -25.078125 C 13.472656 -24.585938 12.484375 -23.90625 11.640625 -23.03125 C 10.796875 -22.15625 10.144531 -21.113281 9.6875 -19.90625 C 9.226562 -18.695312 9 -17.394531 9 -16 C 9 -14.570312 9.238281 -13.253906 9.71875 -12.046875 C 10.195312 -10.835938 10.851562 -9.789062 11.6875 -8.90625 C 12.53125 -8.019531 13.539062 -7.328125 14.71875 -6.828125 C 15.894531 -6.335938 17.179688 -6.09375 18.578125 -6.09375 C 20.097656 -6.09375 21.492188 -6.410156 22.765625 -7.046875 C 24.035156 -7.679688 25.113281 -8.539062 26 -9.625 L 30.859375 -5 C 29.335938 -3.1875 27.503906 -1.785156 25.359375 -0.796875 C 23.210938 0.179688 20.835938 0.671875 18.234375 0.671875 Z M 18.234375 0.671875 "/></g></g></g><g fill="#414244" fill-opacity="1"><g transform="translate(156.602033, 179.067118)"><g><path d="M 18.140625 0.671875 C 15.796875 0.671875 13.625 0.242188 11.625 -0.609375 C 9.625 -1.472656 7.882812 -2.648438 6.40625 -4.140625 C 4.925781 -5.628906 3.765625 -7.382812 2.921875 -9.40625 C 2.085938 -11.425781 1.671875 -13.609375 1.671875 -15.953125 C 1.671875 -18.304688 2.085938 -20.5 2.921875 -22.53125 C 3.765625 -24.5625 4.925781 -26.320312 6.40625 -27.8125 C 7.882812 -29.300781 9.625 -30.46875 11.625 -31.3125 C 13.625 -32.15625 15.796875 -32.578125 18.140625 -32.578125 C 20.460938 -32.578125 22.628906 -32.15625 24.640625 -31.3125 C 26.660156 -30.46875 28.40625 -29.300781 29.875 -27.8125 C 31.351562 -26.320312 32.515625 -24.5625 33.359375 -22.53125 C 34.203125 -20.5 34.625 -18.304688 34.625 -15.953125 C 34.625 -13.609375 34.203125 -11.425781 33.359375 -9.40625 C 32.515625 -7.382812 31.351562 -5.628906 29.875 -4.140625 C 28.40625 -2.648438 26.660156 -1.472656 24.640625 -0.609375 C 22.628906 0.242188 20.460938 0.671875 18.140625 0.671875 Z M 18.140625 -6.09375 C 19.472656 -6.09375 20.695312 -6.335938 21.8125 -6.828125 C 22.925781 -7.328125 23.882812 -8.019531 24.6875 -8.90625 C 25.5 -9.789062 26.132812 -10.835938 26.59375 -12.046875 C 27.0625 -13.253906 27.296875 -14.554688 27.296875 -15.953125 C 27.296875 -17.347656 27.0625 -18.648438 26.59375 -19.859375 C 26.132812 -21.066406 25.5 -22.101562 24.6875 -22.96875 C 23.882812 -23.84375 22.925781 -24.535156 21.8125 -25.046875 C 20.695312 -25.554688 19.472656 -25.8125 18.140625 -25.8125 C 16.804688 -25.8125 15.582031 -25.554688 14.46875 -25.046875 C 13.363281 -24.535156 12.40625 -23.84375 11.59375 -22.96875 C 10.78125 -22.101562 10.144531 -21.066406 9.6875 -19.859375 C 9.226562 -18.648438 9 -17.347656 9 -15.953125 C 9 -14.554688 9.226562 -13.253906 9.6875 -12.046875 C 10.144531 -10.835938 10.78125 -9.796875 11.59375 -8.921875 C 12.40625 -8.054688 13.363281 -7.367188 14.46875 -6.859375 C 15.582031 -6.347656 16.804688 -6.09375 18.140625 -6.09375 Z M 18.140625 -6.09375 "/></g></g></g><g fill="#414244" fill-opacity="1"><g transform="translate(192.892241, 179.067118)"><g><path d="M 3.578125 -31.90625 L 16.1875 -31.90625 C 18.570312 -31.90625 20.769531 -31.5 22.78125 -30.6875 C 24.800781 -29.882812 26.546875 -28.773438 28.015625 -27.359375 C 29.492188 -25.941406 30.65625 -24.257812 31.5 -22.3125 C 32.34375 -20.363281 32.765625 -18.242188 32.765625 -15.953125 C 32.765625 -13.671875 32.34375 -11.5625 31.5 -9.625 C 30.65625 -7.6875 29.492188 -6 28.015625 -4.5625 C 26.546875 -3.132812 24.800781 -2.015625 22.78125 -1.203125 C 20.769531 -0.398438 18.570312 0 16.1875 0 L 3.578125 0 Z M 16.234375 -6.53125 C 17.566406 -6.53125 18.789062 -6.765625 19.90625 -7.234375 C 21.019531 -7.710938 21.988281 -8.375 22.8125 -9.21875 C 23.632812 -10.0625 24.273438 -11.050781 24.734375 -12.1875 C 25.203125 -13.332031 25.4375 -14.585938 25.4375 -15.953125 C 25.4375 -17.316406 25.203125 -18.570312 24.734375 -19.71875 C 24.273438 -20.863281 23.632812 -21.851562 22.8125 -22.6875 C 21.988281 -23.53125 21.019531 -24.191406 19.90625 -24.671875 C 18.789062 -25.148438 17.566406 -25.390625 16.234375 -25.390625 L 10.53125 -25.390625 L 10.53125 -6.53125 Z M 16.234375 -6.53125 "/></g></g></g><g fill="#414244" fill-opacity="1"><g transform="translate(227.325073, 179.067118)"><g><path d="M 3.578125 -31.90625 L 21.8125 -31.90625 L 21.8125 -25.390625 L 10.53125 -25.390625 L 10.53125 -19.53125 L 18.765625 -19.53125 L 18.765625 -13 L 10.53125 -13 L 10.53125 -6.53125 L 22.046875 -6.53125 L 22.046875 0 L 3.578125 0 Z M 3.578125 -31.90625 "/></g></g></g><g fill="#414244" fill-opacity="1"><g transform="translate(124.78857, 222.932856)"><g><path d="M 4.28125 -31.90625 L 11.4375 -31.90625 C 12.894531 -31.90625 14.238281 -31.695312 15.46875 -31.28125 C 16.707031 -30.875 17.769531 -30.296875 18.65625 -29.546875 C 19.550781 -28.804688 20.253906 -27.925781 20.765625 -26.90625 C 21.273438 -25.894531 21.53125 -24.785156 21.53125 -23.578125 C 21.53125 -22.117188 21.160156 -20.816406 20.421875 -19.671875 C 19.691406 -18.523438 18.660156 -17.585938 17.328125 -16.859375 C 19.171875 -16.191406 20.632812 -15.164062 21.71875 -13.78125 C 22.800781 -12.40625 23.34375 -10.796875 23.34375 -8.953125 C 23.34375 -7.648438 23.070312 -6.457031 22.53125 -5.375 C 21.988281 -4.300781 21.234375 -3.359375 20.265625 -2.546875 C 19.296875 -1.734375 18.132812 -1.101562 16.78125 -0.65625 C 15.4375 -0.21875 13.96875 0 12.375 0 L 4.28125 0 Z M 12.375 -3.09375 C 14.664062 -3.09375 16.507812 -3.640625 17.90625 -4.734375 C 19.300781 -5.828125 20 -7.296875 20 -9.140625 C 20 -10.953125 19.300781 -12.40625 17.90625 -13.5 C 16.507812 -14.59375 14.664062 -15.140625 12.375 -15.140625 L 7.625 -15.140625 L 7.625 -3.09375 Z M 11.4375 -18.09375 C 13.5 -18.09375 15.140625 -18.566406 16.359375 -19.515625 C 17.578125 -20.472656 18.1875 -21.765625 18.1875 -23.390625 C 18.1875 -25.035156 17.566406 -26.347656 16.328125 -27.328125 C 15.097656 -28.316406 13.46875 -28.8125 11.4375 -28.8125 L 7.625 -28.8125 L 7.625 -18.09375 Z M 11.4375 -18.09375 "/></g></g></g><g fill="#414244" fill-opacity="1"><g transform="translate(150.744132, 222.932856)"><g><path d="M 18.328125 0.46875 C 16.140625 0.46875 14.078125 0.0390625 12.140625 -0.8125 C 10.203125 -1.664062 8.507812 -2.835938 7.0625 -4.328125 C 5.625 -5.828125 4.484375 -7.566406 3.640625 -9.546875 C 2.796875 -11.535156 2.375 -13.671875 2.375 -15.953125 C 2.375 -18.203125 2.796875 -20.328125 3.640625 -22.328125 C 4.484375 -24.335938 5.625 -26.085938 7.0625 -27.578125 C 8.507812 -29.066406 10.203125 -30.238281 12.140625 -31.09375 C 14.078125 -31.957031 16.140625 -32.390625 18.328125 -32.390625 C 20.523438 -32.390625 22.59375 -31.957031 24.53125 -31.09375 C 26.46875 -30.238281 28.15625 -29.066406 29.59375 -27.578125 C 31.039062 -26.085938 32.1875 -24.347656 33.03125 -22.359375 C 33.875 -20.378906 34.296875 -18.242188 34.296875 -15.953125 C 34.296875 -13.703125 33.875 -11.582031 33.03125 -9.59375 C 32.1875 -7.613281 31.039062 -5.875 29.59375 -4.375 C 28.15625 -2.882812 26.46875 -1.703125 24.53125 -0.828125 C 22.59375 0.0351562 20.523438 0.46875 18.328125 0.46875 Z M 18.328125 -2.8125 C 20.078125 -2.8125 21.710938 -3.144531 23.234375 -3.8125 C 24.765625 -4.476562 26.078125 -5.394531 27.171875 -6.5625 C 28.265625 -7.738281 29.128906 -9.128906 29.765625 -10.734375 C 30.398438 -12.335938 30.71875 -14.078125 30.71875 -15.953125 C 30.71875 -17.828125 30.398438 -19.566406 29.765625 -21.171875 C 29.128906 -22.773438 28.265625 -24.160156 27.171875 -25.328125 C 26.078125 -26.503906 24.765625 -27.425781 23.234375 -28.09375 C 21.710938 -28.757812 20.078125 -29.09375 18.328125 -29.09375 C 16.554688 -29.09375 14.914062 -28.757812 13.40625 -28.09375 C 11.894531 -27.425781 10.59375 -26.503906 9.5 -25.328125 C 8.40625 -24.160156 7.539062 -22.773438 6.90625 -21.171875 C 6.269531 -19.566406 5.953125 -17.828125 5.953125 -15.953125 C 5.953125 -14.078125 6.269531 -12.335938 6.90625 -10.734375 C 7.539062 -9.128906 8.40625 -7.738281 9.5 -6.5625 C 10.59375 -5.394531 11.894531 -4.476562 13.40625 -3.8125 C 14.914062 -3.144531 16.554688 -2.8125 18.328125 -2.8125 Z M 18.328125 -2.8125 "/></g></g></g><g fill="#414244" fill-opacity="1"><g transform="translate(187.177182, 222.932856)"><g><path d="M 13.578125 -32.859375 L 14.53125 -32.859375 L 26.671875 0 L 23 0 L 20 -8.375 L 7.90625 -8.375 L 4.90625 0 L 1.421875 0 Z M 18.90625 -11.484375 L 13.953125 -25.28125 L 9 -11.484375 Z M 18.90625 -11.484375 "/></g></g></g><g fill="#414244" fill-opacity="1"><g transform="translate(215.037736, 222.932856)"><g><path d="M 4.28125 -31.90625 L 11.90625 -31.90625 C 13.488281 -31.90625 14.953125 -31.675781 16.296875 -31.21875 C 17.648438 -30.757812 18.8125 -30.109375 19.78125 -29.265625 C 20.75 -28.421875 21.503906 -27.425781 22.046875 -26.28125 C 22.585938 -25.144531 22.859375 -23.894531 22.859375 -22.53125 C 22.859375 -21.414062 22.679688 -20.375 22.328125 -19.40625 C 21.984375 -18.4375 21.492188 -17.5625 20.859375 -16.78125 C 20.222656 -16.007812 19.457031 -15.34375 18.5625 -14.78125 C 17.675781 -14.226562 16.710938 -13.8125 15.671875 -13.53125 L 24.765625 0 L 20.765625 0 L 11.90625 -13.140625 L 7.625 -13.140625 L 7.625 0 L 4.28125 0 Z M 11.90625 -16.234375 C 14.1875 -16.234375 16.023438 -16.804688 17.421875 -17.953125 C 18.828125 -19.097656 19.53125 -20.640625 19.53125 -22.578125 C 19.53125 -24.484375 18.828125 -26 17.421875 -27.125 C 16.023438 -28.25 14.1875 -28.8125 11.90625 -28.8125 L 7.625 -28.8125 L 7.625 -16.234375 Z M 11.90625 -16.234375 "/></g></g></g><g fill="#414244" fill-opacity="1"><g transform="translate(241.469559, 222.932856)"><g><path d="M 4.28125 -31.90625 L 14.71875 -31.90625 C 17.164062 -31.90625 19.421875 -31.507812 21.484375 -30.71875 C 23.546875 -29.925781 25.328125 -28.8125 26.828125 -27.375 C 28.335938 -25.945312 29.519531 -24.257812 30.375 -22.3125 C 31.238281 -20.363281 31.671875 -18.242188 31.671875 -15.953125 C 31.671875 -13.671875 31.238281 -11.550781 30.375 -9.59375 C 29.519531 -7.644531 28.335938 -5.960938 26.828125 -4.546875 C 25.328125 -3.128906 23.546875 -2.015625 21.484375 -1.203125 C 19.421875 -0.398438 17.164062 0 14.71875 0 L 4.28125 0 Z M 14.671875 -3.09375 C 16.609375 -3.09375 18.398438 -3.410156 20.046875 -4.046875 C 21.703125 -4.679688 23.125 -5.566406 24.3125 -6.703125 C 25.5 -7.847656 26.425781 -9.207031 27.09375 -10.78125 C 27.757812 -12.351562 28.09375 -14.078125 28.09375 -15.953125 C 28.09375 -17.828125 27.757812 -19.550781 27.09375 -21.125 C 26.425781 -22.695312 25.5 -24.050781 24.3125 -25.1875 C 23.125 -26.332031 21.703125 -27.222656 20.046875 -27.859375 C 18.398438 -28.492188 16.609375 -28.8125 14.671875 -28.8125 L 7.625 -28.8125 L 7.625 -3.09375 Z M 14.671875 -3.09375 "/></g></g></g></svg>