<svg width="400" height="312" viewBox="0 0 400 312" fill="none" xmlns="http://www.w3.org/2000/svg">
<g clip-path="url(#clip0_28_86)">
<path d="M83.0398 204.764C64.9551 186.961 57.317 168.388 61.5319 152.467C66.9409 132.035 90.9705 117.908 127.459 113.709L127.594 114.881C91.6132 119.022 67.9502 132.831 62.6722 152.768C58.5703 168.263 66.0975 186.43 83.8674 203.924L83.0398 204.764Z" fill="#F0F0F0"/>
<path d="M257.526 267.959C234.956 267.959 210.428 264.605 186.066 258.155C155.939 250.18 128.315 238.141 106.182 223.34L106.837 222.36C128.864 237.089 156.365 249.073 186.368 257.015C213.481 264.193 240.797 267.519 265.354 266.642L265.396 267.82C262.803 267.913 260.18 267.96 257.526 267.959Z" fill="#F0F0F0"/>
<path d="M309.307 260.542L308.929 259.425C329.115 252.6 341.741 241.605 345.441 227.629C350.145 209.861 339.926 189.244 316.668 169.573C293.291 149.803 259.581 133.398 221.746 123.382L222.048 122.242C260.048 132.302 293.922 148.791 317.429 168.673C341.055 188.653 351.409 209.698 346.582 227.93C342.776 242.308 329.886 253.584 309.307 260.542Z" fill="#F0F0F0"/>
<path d="M123.948 268.452C79.5973 248.782 45.422 223.263 27.7178 196.595L28.7003 195.943C46.2822 222.426 80.278 247.794 124.426 267.374L123.948 268.452Z" fill="#F0F0F0"/>
<path d="M279.88 302.529C275.305 302.529 270.652 302.427 265.922 302.222L265.972 301.044C301.277 302.573 332.426 298.348 356.06 288.824L356.501 289.918C335.885 298.225 309.608 302.529 279.88 302.529Z" fill="#F0F0F0"/>
<path d="M254.147 114.766C246.817 112.38 239.277 110.158 231.737 108.161C188.348 96.6747 145.695 92.5963 108.39 96.3695L108.271 95.1957C145.716 91.4102 188.514 95.4984 232.039 107.021C239.6 109.023 247.161 111.251 254.512 113.645L254.147 114.766Z" fill="#F0F0F0"/>
<path d="M55.3221 206.533C37.2374 188.73 29.5993 170.157 33.8141 154.236C39.2231 133.804 63.2527 119.677 99.7414 115.478L99.8762 116.65C63.8955 120.791 40.2324 134.6 34.9544 154.537C30.8525 170.032 38.3797 188.199 56.1496 205.693L55.3221 206.533Z" fill="#F0F0F0"/>
<path d="M229.809 269.729C207.238 269.729 182.711 266.374 158.348 259.925C128.221 251.949 100.597 239.91 78.4639 225.11L79.1193 224.129C101.146 238.858 128.647 250.842 158.65 258.784C185.763 265.963 213.079 269.289 237.636 268.411L237.679 269.589C235.085 269.682 232.462 269.729 229.809 269.729Z" fill="#F0F0F0"/>
<path d="M281.589 262.311L281.211 261.194C301.398 254.369 314.023 243.374 317.724 229.398C322.427 211.631 312.209 191.013 288.95 171.342C265.573 151.572 231.863 135.167 194.028 125.151L194.33 124.011C232.33 134.071 266.204 150.561 289.712 170.442C313.337 190.423 323.691 211.468 318.864 229.7C315.058 244.077 302.168 255.354 281.589 262.311Z" fill="#F0F0F0"/>
<path d="M96.2298 270.221C51.8795 250.552 17.7043 225.032 0 198.364L0.982522 197.712C18.5644 224.195 52.5603 249.563 96.7078 269.143L96.2298 270.221Z" fill="#F0F0F0"/>
<path d="M252.162 304.298C247.587 304.298 242.935 304.196 238.204 303.992L238.255 302.813C273.559 304.342 304.709 300.117 328.342 290.593L328.783 291.687C308.167 299.994 281.89 304.298 252.162 304.298Z" fill="#F0F0F0"/>
<path d="M226.429 116.536C219.099 114.149 211.559 111.927 204.019 109.931C160.63 98.444 117.978 94.3656 80.672 98.1388L80.5533 96.965C117.998 93.1795 160.796 97.2677 204.321 108.79C211.882 110.792 219.443 113.021 226.794 115.414L226.429 116.536Z" fill="#F0F0F0"/>
<path d="M20.1036 174.941C28.5795 165.438 42.1 159.646 54.3526 163.114C43.0491 171.113 34.9393 182.852 31.4581 196.255C30.1343 201.429 29.2007 207.322 24.8978 210.485C22.2206 212.453 18.6731 212.924 15.3806 212.475C12.0879 212.027 8.97459 210.747 5.9033 209.478L5.07684 209.549C7.45296 197.039 11.6277 184.445 20.1036 174.941Z" fill="#F2F2F2"/>
<path d="M54.3152 163.378C44.0711 165.858 34.8691 171.503 28.016 179.511C26.5101 181.209 25.2812 183.134 24.3746 185.214C23.5569 187.269 23.3044 189.506 23.6435 191.691C23.9187 193.736 24.4369 195.795 24.2103 197.871C24.0786 198.931 23.7241 199.952 23.1702 200.866C22.6162 201.78 21.8753 202.567 20.9959 203.175C18.8443 204.746 16.2565 205.45 13.7019 206.051C10.8654 206.718 7.90871 207.366 5.59657 209.251C5.31642 209.48 4.97841 209.032 5.25813 208.804C9.28086 205.524 14.8716 205.945 19.3223 203.563C21.3991 202.451 23.1535 200.707 23.5801 198.314C23.9531 196.221 23.4205 194.097 23.124 192.03C22.762 189.902 22.9264 187.719 23.6029 185.669C24.4007 183.55 25.5534 181.581 27.0117 179.848C30.2325 175.894 34.0549 172.471 38.3391 169.704C43.2111 166.519 48.5919 164.191 54.2489 162.821C54.5991 162.736 54.6631 163.294 54.3152 163.378Z" fill="white"/>
<path d="M30.0709 176.803C28.8834 175.471 28.2082 173.76 28.1657 171.976C28.1232 170.192 28.7163 168.451 29.8391 167.063C30.0672 166.784 30.5129 167.125 30.2845 167.405C29.2366 168.695 28.6842 170.317 28.7272 171.978C28.7701 173.639 29.4055 175.231 30.5186 176.465C30.7602 176.733 30.3111 177.07 30.0709 176.803Z" fill="white"/>
<path d="M23.3675 190.673C27.0075 190.915 30.605 189.776 33.4425 187.483C33.7234 187.256 34.0615 187.704 33.7809 187.931C30.8237 190.311 27.0776 191.489 23.2902 191.229C22.9292 191.204 23.0084 190.648 23.3675 190.673Z" fill="white"/>
<path d="M43.3372 167.252C43.6893 167.864 44.1876 168.378 44.7875 168.749C45.3874 169.12 46.07 169.336 46.7741 169.378C47.1352 169.398 47.0556 169.954 46.6969 169.934C45.9192 169.884 45.1656 169.644 44.5019 169.236C43.8382 168.827 43.2846 168.263 42.8895 167.591C42.847 167.531 42.829 167.457 42.8391 167.384C42.8493 167.311 42.8868 167.244 42.9442 167.198C43.0037 167.153 43.0784 167.134 43.152 167.144C43.2256 167.155 43.2921 167.193 43.3372 167.252Z" fill="white"/>
<path d="M71.7454 202.564C71.5195 202.558 71.2937 202.551 71.0649 202.549C68.0281 202.479 64.9907 202.656 61.9826 203.079C61.7495 203.108 61.5137 203.14 61.2819 203.176C54.0455 204.271 47.0753 206.699 40.7255 210.338C38.2001 211.789 35.7887 213.429 33.5121 215.246C30.3684 217.754 27.1592 220.724 23.4786 222.01C23.0962 222.148 22.7055 222.263 22.3088 222.353L5.22827 210.552C5.20291 210.506 5.17469 210.463 5.14913 210.417L4.44562 209.977C4.55648 209.875 4.67366 209.772 4.78453 209.67C4.84859 209.61 4.91648 209.554 4.98052 209.494C5.02444 209.456 5.06857 209.417 5.10598 209.379C5.12055 209.366 5.13531 209.354 5.1472 209.345C5.18462 209.307 5.22335 209.276 5.25807 209.243C5.91146 208.664 6.57005 208.088 7.23386 207.516C7.23655 207.512 7.23656 207.512 7.24306 207.511C12.312 203.166 17.7883 199.206 23.6915 196.203C23.8691 196.113 24.0493 196.019 24.2347 195.934C26.9031 194.595 29.6764 193.477 32.527 192.59C34.0895 192.109 35.6753 191.708 37.2783 191.388C41.4219 190.568 45.6687 190.405 49.8629 190.905C58.2237 191.903 66.1724 195.564 71.3543 202.064C71.4868 202.23 71.6156 202.394 71.7454 202.564Z" fill="#F2F2F2"/>
<path d="M71.5572 202.754C61.8846 198.567 51.1386 197.534 40.8454 199.802C38.6209 200.251 36.481 201.047 34.5046 202.163C32.6144 203.311 31.0662 204.945 30.021 206.894C29.0099 208.692 28.1839 210.648 26.7533 212.169C26.0095 212.937 25.1119 213.538 24.1192 213.935C23.1265 214.331 22.0613 214.513 20.9933 214.469C18.3294 214.428 15.8391 213.432 13.4377 212.374C10.7713 211.199 8.02036 209.936 5.03934 210.049C4.67814 210.063 4.67802 209.502 5.03867 209.488C10.2251 209.291 14.4355 212.994 19.4234 213.771C21.7508 214.134 24.2017 213.798 25.9832 212.144C27.5411 210.697 28.3946 208.681 29.4026 206.852C30.3944 204.935 31.8404 203.29 33.6142 202.062C35.5275 200.849 37.6331 199.972 39.8409 199.466C44.7932 198.248 49.9063 197.816 54.9927 198.186C60.8002 198.577 66.4981 199.957 71.8399 202.269C72.1704 202.412 71.8856 202.896 71.5572 202.754Z" fill="white"/>
<path d="M44.1168 198.876C43.9708 197.098 44.4617 195.325 45.5019 193.875C46.5422 192.425 48.064 191.392 49.7956 190.96C50.1463 190.874 50.2966 191.415 49.9455 191.501C48.3322 191.9 46.9148 192.863 45.9488 194.215C44.9829 195.567 44.5322 197.22 44.678 198.876C44.7093 199.236 44.1479 199.234 44.1168 198.876Z" fill="white"/>
<path d="M30.4136 205.915C33.1744 208.3 36.7326 209.556 40.3786 209.434C40.7399 209.421 40.7401 209.983 40.3793 209.995C36.5849 210.115 32.8848 208.8 30.0172 206.312C29.7441 206.075 30.1419 205.679 30.4136 205.915Z" fill="white"/>
<path d="M60.4594 199.238C60.3725 199.938 60.4608 200.649 60.7164 201.306C60.972 201.963 61.3869 202.547 61.9238 203.004C62.1998 203.238 61.8016 203.634 61.5274 203.402C60.9366 202.894 60.4792 202.248 60.1952 201.523C59.9112 200.797 59.8092 200.013 59.8981 199.239C59.9004 199.165 59.9307 199.095 59.9827 199.043C60.0348 198.991 60.1047 198.96 60.1784 198.958C60.2527 198.958 60.3239 198.988 60.3765 199.04C60.4291 199.093 60.4589 199.164 60.4594 199.238Z" fill="white"/>
<path d="M352.219 252.844C347.431 241.045 336.643 231.046 323.938 230.193C331.896 241.526 335.588 255.308 334.362 269.102C333.87 274.419 332.769 280.283 335.758 284.708C337.618 287.462 340.801 289.097 344.053 289.782C347.304 290.466 350.667 290.306 353.986 290.144L354.74 290.489C356.707 277.908 357.008 264.643 352.219 252.844Z" fill="#F2F2F2"/>
<path d="M323.885 230.455C332.699 236.234 339.468 244.643 343.231 254.488C344.079 256.594 344.59 258.819 344.744 261.083C344.824 263.294 344.31 265.485 343.256 267.43C342.31 269.262 341.129 271.028 340.645 273.059C340.413 274.102 340.404 275.183 340.618 276.23C340.833 277.277 341.266 278.267 341.89 279.135C343.388 281.338 345.589 282.871 347.793 284.295C350.24 285.877 352.807 287.481 354.351 290.033C354.538 290.343 355.007 290.034 354.82 289.725C352.134 285.285 346.727 283.802 343.336 280.063C341.753 278.318 340.687 276.086 341.09 273.688C341.442 271.592 342.657 269.77 343.631 267.923C344.687 266.041 345.266 263.929 345.318 261.772C345.279 259.507 344.855 257.265 344.064 255.143C342.36 250.336 339.91 245.828 336.805 241.782C333.287 237.145 329.002 233.144 324.134 229.952C323.833 229.754 323.585 230.258 323.885 230.455Z" fill="white"/>
<path d="M342.206 251.247C343.773 250.391 344.984 249.007 345.623 247.341C346.263 245.675 346.289 243.836 345.698 242.152C345.577 241.812 345.043 241.983 345.164 242.324C345.717 243.891 345.692 245.604 345.094 247.154C344.495 248.705 343.362 249.99 341.898 250.778C341.581 250.949 341.89 251.418 342.206 251.247Z" fill="white"/>
<path d="M343.858 266.563C340.348 265.568 337.343 263.286 335.441 260.173C335.253 259.864 334.784 260.172 334.972 260.481C336.957 263.717 340.09 266.085 343.744 267.113C344.092 267.211 344.205 266.661 343.858 266.563Z" fill="white"/>
<path d="M332.922 237.793C332.385 238.25 331.743 238.567 331.053 238.715C330.363 238.863 329.648 238.837 328.97 238.64C328.623 238.538 328.512 239.088 328.856 239.189C329.606 239.404 330.396 239.431 331.158 239.27C331.921 239.108 332.632 238.762 333.23 238.262C333.29 238.22 333.332 238.156 333.347 238.084C333.362 238.012 333.349 237.937 333.31 237.874C333.269 237.812 333.205 237.769 333.133 237.754C333.06 237.738 332.984 237.753 332.922 237.793Z" fill="white"/>
<path d="M294.298 261.503C294.513 261.572 294.728 261.642 294.944 261.717C297.828 262.672 300.629 263.86 303.32 265.269C303.53 265.374 303.741 265.484 303.947 265.596C310.395 269.059 316.143 273.689 320.9 279.251C322.791 281.465 324.511 283.821 326.045 286.297C328.163 289.716 330.187 293.592 333.221 296.04C333.535 296.299 333.864 296.538 334.208 296.756L354.261 291.382C354.3 291.347 354.341 291.317 354.381 291.282L355.191 291.104C355.121 290.97 355.045 290.834 354.975 290.7C354.935 290.623 354.89 290.547 354.85 290.469C354.821 290.418 354.793 290.367 354.77 290.319C354.761 290.302 354.751 290.285 354.743 290.272C354.72 290.225 354.694 290.182 354.673 290.139C354.252 289.374 353.825 288.611 353.392 287.849C353.391 287.844 353.391 287.844 353.385 287.841C350.072 282.045 346.245 276.475 341.694 271.663C341.557 271.518 341.419 271.369 341.273 271.226C339.21 269.069 336.974 267.083 334.587 265.29C333.277 264.312 331.918 263.401 330.516 262.561C326.889 260.396 322.944 258.815 318.826 257.877C310.616 256.007 301.899 256.783 294.835 261.163C294.654 261.275 294.477 261.386 294.298 261.503Z" fill="#F2F2F2"/>
<path d="M294.411 261.745C304.929 261.052 315.397 263.691 324.329 269.287C326.273 270.457 328.021 271.927 329.507 273.641C330.901 275.358 331.81 277.417 332.14 279.605C332.488 281.638 332.608 283.758 333.444 285.671C333.887 286.644 334.53 287.512 335.332 288.219C336.134 288.926 337.076 289.456 338.096 289.773C340.619 290.63 343.299 290.529 345.917 290.339C348.823 290.129 351.838 289.864 354.608 290.972C354.943 291.107 355.132 290.578 354.797 290.444C349.978 288.516 344.769 290.587 339.809 289.643C337.495 289.203 335.3 288.062 334.178 285.906C333.197 284.02 333.071 281.834 332.736 279.772C332.447 277.634 331.637 275.599 330.38 273.845C328.985 272.061 327.297 270.526 325.388 269.308C321.133 266.496 316.462 264.371 311.547 263.01C305.947 261.426 300.116 260.811 294.308 261.193C293.949 261.217 294.054 261.769 294.411 261.745Z" fill="white"/>
<path d="M321.559 267.315C322.294 265.689 322.427 263.855 321.935 262.14C321.443 260.424 320.357 258.94 318.871 257.951C318.569 257.752 318.246 258.211 318.548 258.41C319.933 259.328 320.945 260.711 321.4 262.31C321.855 263.908 321.724 265.616 321.03 267.126C320.88 267.455 321.409 267.642 321.559 267.315Z" fill="white"/>
<path d="M332.099 278.55C328.697 279.868 324.924 279.856 321.531 278.515C321.195 278.382 321.006 278.911 321.342 279.044C324.875 280.432 328.802 280.437 332.339 279.058C332.676 278.926 332.434 278.419 332.099 278.55Z" fill="white"/>
<path d="M306.045 262.163C305.892 262.852 305.57 263.491 305.108 264.025C304.646 264.558 304.06 264.968 303.4 265.218C303.062 265.346 303.304 265.852 303.64 265.726C304.367 265.446 305.015 264.992 305.526 264.404C306.038 263.816 306.397 263.112 306.574 262.353C306.596 262.282 306.591 262.206 306.56 262.14C306.528 262.073 306.473 262.021 306.404 261.994C306.334 261.969 306.257 261.973 306.19 262.005C306.123 262.037 306.071 262.094 306.045 262.163Z" fill="white"/>
<path d="M276.025 212.665C278.631 212.665 280.743 210.552 280.743 207.947C280.743 205.341 278.631 203.229 276.025 203.229C273.419 203.229 271.307 205.341 271.307 207.947C271.307 210.552 273.419 212.665 276.025 212.665Z" fill="#E6E6E6"/>
<path d="M188.236 81.7986C190.841 81.7986 192.954 79.6863 192.954 77.0807C192.954 74.4751 190.841 72.3628 188.236 72.3628C185.63 72.3628 183.518 74.4751 183.518 77.0807C183.518 79.6863 185.63 81.7986 188.236 81.7986Z" fill="#E6E6E6"/>
<path d="M89.3691 258.059C89.3691 259.26 89.4087 260.461 89.4927 261.652C89.5817 263.076 89.7349 264.489 89.9424 265.893C90.64 270.619 91.9733 275.229 93.9061 279.598C94.005 279.815 94.1038 280.033 94.2027 280.25L94.351 280.576C94.4004 280.685 94.4547 280.794 94.5042 280.898C94.5734 281.041 94.6376 281.179 94.7068 281.318C94.7908 281.491 94.8748 281.664 94.9638 281.837C94.9737 281.856 94.9836 281.881 94.9984 281.906C95.0725 282.054 95.1417 282.198 95.2208 282.346C95.2353 282.378 95.2518 282.409 95.2702 282.44C95.3542 282.608 95.4432 282.781 95.5322 282.949C95.631 283.127 95.7249 283.31 95.8238 283.487C96.061 283.927 96.3081 284.362 96.5602 284.797C96.6343 284.926 96.7084 285.054 96.7875 285.183C96.8567 285.301 96.9259 285.42 97 285.538C97.0494 285.618 97.0989 285.702 97.1483 285.781C97.2274 285.914 97.3064 286.043 97.3905 286.176C97.5733 286.468 97.7611 286.759 97.944 287.051H97.9489C98.033 287.184 98.1219 287.318 98.2109 287.446V287.451C98.4728 287.847 98.7446 288.242 99.0165 288.632L99.0184 288.633L99.02 288.634L99.0211 288.635L99.0214 288.637C99.2389 288.954 99.4662 289.26 99.6886 289.566V289.571C99.8369 289.764 99.9802 289.962 100.128 290.155C100.247 290.313 100.371 290.476 100.494 290.634C100.519 290.669 100.549 290.698 100.573 290.733V290.738C100.608 290.782 100.642 290.822 100.677 290.866C101.201 291.538 101.741 292.196 102.298 292.838L102.387 292.942C102.417 292.977 102.451 293.011 102.481 293.051C102.53 293.105 102.575 293.159 102.624 293.214C102.669 293.268 102.718 293.323 102.768 293.377C105.67 296.647 108.962 299.55 112.568 302.021C113.048 302.352 113.537 302.673 114.026 302.985C114.15 303.064 114.273 303.143 114.397 303.217C114.431 303.242 114.471 303.266 114.506 303.291C114.575 303.331 114.639 303.37 114.708 303.415C114.772 303.454 114.837 303.494 114.906 303.533C115.168 303.696 115.435 303.855 115.702 304.013C115.766 304.052 115.835 304.092 115.904 304.131C115.969 304.166 116.038 304.206 116.107 304.245C116.107 304.25 116.107 304.25 116.112 304.25H116.117V304.255H116.122C116.453 304.448 116.789 304.635 117.13 304.818C117.313 304.917 117.501 305.021 117.688 305.115C118.113 305.347 118.543 305.57 118.973 305.782C119.127 305.856 119.285 305.93 119.438 306.009C119.567 306.069 119.695 306.133 119.824 306.192C119.863 306.212 119.898 306.227 119.932 306.247C120.041 306.296 120.145 306.345 120.253 306.395C120.372 306.449 120.491 306.504 120.604 306.558C120.738 306.617 120.866 306.677 121 306.731C121.494 306.953 121.993 307.166 122.492 307.369C124.281 308.102 126.109 308.735 127.968 309.266C128.052 309.291 128.141 309.316 128.23 309.341C129.026 309.563 129.827 309.766 130.632 309.948C132.041 310.275 133.463 310.542 134.897 310.749H134.907C135.08 310.774 135.248 310.799 135.421 310.823C135.436 310.823 135.451 310.828 135.471 310.828C135.471 310.833 135.471 310.833 135.476 310.828C135.664 310.853 135.856 310.878 136.044 310.902C136.057 310.906 136.07 310.908 136.084 310.907C136.262 310.932 136.444 310.952 136.622 310.971C136.815 310.991 137.008 311.011 137.201 311.031C137.349 311.046 137.497 311.06 137.645 311.075C137.658 311.08 137.672 311.081 137.685 311.08C137.818 311.09 137.952 311.105 138.085 311.115H138.105C138.219 311.125 138.337 311.135 138.451 311.145C139.83 311.253 141.214 311.303 142.617 311.303C144.135 311.303 145.642 311.243 147.13 311.115H147.144C147.466 311.085 147.782 311.056 148.098 311.026C148.182 311.016 148.261 311.011 148.345 311.001C148.36 311.001 148.38 310.996 148.395 310.996C148.42 310.991 148.444 310.991 148.474 310.986C148.487 310.987 148.501 310.985 148.514 310.981C148.622 310.971 148.731 310.957 148.845 310.947L149.215 310.902C149.339 310.887 149.462 310.868 149.586 310.853C149.616 310.848 149.64 310.848 149.67 310.843C149.759 310.833 149.848 310.818 149.937 310.803C149.981 310.799 150.026 310.794 150.065 310.789C150.154 310.774 150.238 310.764 150.327 310.749H150.332C153.044 310.359 155.721 309.756 158.339 308.945C158.477 308.901 158.616 308.861 158.754 308.817C158.759 308.817 158.764 308.812 158.769 308.812C158.808 308.797 158.853 308.787 158.892 308.772C159.263 308.654 159.629 308.53 159.994 308.402C160.499 308.233 160.998 308.051 161.497 307.863C161.63 307.808 161.764 307.759 161.897 307.705C162.169 307.601 162.436 307.492 162.703 307.383C163.158 307.201 163.612 307.008 164.062 306.81C164.482 306.622 164.897 306.434 165.312 306.237C165.322 306.232 165.337 306.232 165.347 306.222C165.441 306.177 165.535 306.133 165.624 306.089H165.629C167.905 304.996 170.1 303.743 172.197 302.337C172.869 301.888 173.531 301.423 174.184 300.944C174.708 300.553 175.222 300.158 175.736 299.753C178.271 297.735 180.619 295.492 182.749 293.051V293.046C182.902 292.878 183.045 292.705 183.194 292.532C183.218 292.507 183.238 292.482 183.258 292.463C183.352 292.349 183.441 292.24 183.535 292.132V292.127C183.658 291.983 183.782 291.835 183.9 291.687C183.93 291.652 183.955 291.622 183.979 291.593V291.588C184.078 291.469 184.172 291.351 184.271 291.227C184.32 291.168 184.365 291.108 184.414 291.049V291.044C184.706 290.678 184.988 290.313 185.269 289.937C185.343 289.838 185.418 289.734 185.497 289.631C185.852 289.151 186.198 288.662 186.535 288.173V288.168C186.663 287.985 186.787 287.797 186.915 287.614C187.039 287.426 187.162 287.239 187.286 287.051C187.409 286.853 187.538 286.66 187.661 286.463L187.676 286.433C187.8 286.245 187.923 286.048 188.042 285.855C188.136 285.697 188.23 285.543 188.324 285.39C188.383 285.286 188.447 285.183 188.507 285.074C188.53 285.04 188.551 285.006 188.571 284.97C188.709 284.728 188.848 284.486 188.986 284.244C189.149 283.962 189.307 283.675 189.465 283.389C189.525 283.27 189.589 283.151 189.653 283.033C189.678 282.993 189.698 282.954 189.717 282.914C189.791 282.776 189.866 282.633 189.935 282.489C190.009 282.351 190.083 282.207 190.157 282.064C190.226 281.926 190.301 281.782 190.37 281.639C190.424 281.53 190.474 281.422 190.528 281.313C190.532 281.304 190.537 281.296 190.543 281.288C190.567 281.234 190.592 281.184 190.612 281.135C190.618 281.127 190.623 281.119 190.627 281.11C190.681 281.002 190.731 280.888 190.785 280.779C190.854 280.636 190.918 280.488 190.988 280.344C191.032 280.245 191.081 280.142 191.126 280.038C191.19 279.894 191.259 279.751 191.319 279.603C191.388 279.455 191.452 279.306 191.516 279.153C191.535 279.116 191.551 279.078 191.566 279.039C191.6 278.97 191.625 278.901 191.655 278.832C191.734 278.649 191.813 278.461 191.887 278.278C191.976 278.071 192.06 277.858 192.139 277.651C192.218 277.458 192.292 277.26 192.366 277.063L192.396 276.993C193.548 273.96 194.421 270.829 195.006 267.638V267.633C195.335 265.811 195.571 263.973 195.712 262.127C195.717 262.023 195.727 261.924 195.732 261.825C195.821 260.575 195.861 259.32 195.861 258.059C195.861 257.501 195.851 256.947 195.836 256.394C195.491 244.817 191.363 233.672 184.083 224.664C183.925 224.467 183.767 224.269 183.604 224.071C183.441 223.874 183.273 223.681 183.11 223.488C177.692 217.143 170.859 212.16 163.162 208.941C155.465 205.721 147.119 204.355 138.797 204.953C130.475 205.551 122.41 208.096 115.252 212.382C108.094 216.669 102.044 222.577 97.5882 229.631C97.346 230.017 97.1038 230.407 96.8716 230.798C96.6343 231.193 96.407 231.589 96.1796 231.989C91.7022 239.948 89.3563 248.928 89.3691 258.059Z" fill="#F2F2F2"/>
<path d="M140.501 223.233C149.257 225.479 158.229 226.775 167.263 227.095C168.629 227.17 169.998 227.161 171.363 227.068C174.362 226.815 176.932 225.873 179.793 225.357C181.169 225.11 182.701 224.93 184.086 224.663C183.766 224.266 183.44 223.874 183.108 223.486C180.122 223.739 177.09 224.565 174.068 224.948C168.93 225.602 163.174 224.873 159.28 223.075C157.39 222.202 155.943 221.114 154.06 220.237C153.804 220.106 153.527 220.021 153.241 219.986C152.698 219.97 152.162 220.109 151.696 220.387C148.537 221.982 143.951 223.278 139.694 222.565C139.376 222.813 139.979 223.096 140.501 223.233Z" fill="white"/>
<path d="M121.664 228.845C121.625 228.838 121.586 228.832 121.547 228.825C121.71 228.724 121.864 228.608 122.007 228.479L121.664 228.845Z" fill="white"/>
<path d="M96.1807 231.991C97.9586 232.133 99.7458 232.239 101.542 232.308C102.908 232.382 104.278 232.373 105.643 232.28C108.642 232.027 111.211 231.085 114.073 230.57C116.695 230.099 119.882 229.872 121.547 228.826C117.243 228.081 112.785 229.597 108.347 230.161C104.758 230.603 101.119 230.423 97.5908 229.63C97.0995 230.403 96.6295 231.19 96.1807 231.991Z" fill="white"/>
<path d="M117.688 305.115C118.114 305.347 118.543 305.57 118.973 305.782C119.127 305.856 119.285 305.93 119.438 306.009C119.567 306.069 119.695 306.133 119.824 306.192C119.863 306.212 119.898 306.227 119.932 306.247C120.041 306.296 120.145 306.346 120.254 306.395C120.372 306.449 120.491 306.504 120.604 306.558C120.738 306.617 120.866 306.677 121 306.731C121.494 306.953 121.993 307.166 122.492 307.369C124.281 308.102 126.109 308.735 127.968 309.266C128.052 309.291 128.141 309.316 128.23 309.341C129.026 309.563 129.827 309.766 130.632 309.948C132.041 310.275 133.463 310.542 134.898 310.749H134.907C135.08 310.774 135.248 310.799 135.421 310.823C135.436 310.823 135.451 310.828 135.471 310.828C135.471 310.833 135.471 310.833 135.476 310.828C135.664 310.853 135.856 310.878 136.044 310.902C136.057 310.906 136.07 310.908 136.084 310.907C136.262 310.932 136.444 310.952 136.622 310.972C136.815 310.991 137.008 311.011 137.201 311.031C137.349 311.046 137.497 311.06 137.645 311.075C137.658 311.08 137.672 311.081 137.685 311.08C137.818 311.09 137.952 311.105 138.085 311.115H138.105C138.219 311.125 138.337 311.135 138.451 311.145C139.83 311.253 141.214 311.303 142.617 311.303C144.135 311.303 145.642 311.243 147.13 311.115H147.145C147.466 311.085 147.782 311.056 148.098 311.026C148.182 311.016 148.261 311.011 148.346 311.001C148.36 311.001 148.38 310.996 148.395 310.996C148.42 310.991 148.444 310.991 148.474 310.986C148.487 310.987 148.501 310.985 148.514 310.981C148.622 310.972 148.731 310.957 148.845 310.947L149.215 310.902C149.339 310.888 149.462 310.868 149.586 310.853C149.616 310.848 149.64 310.848 149.67 310.843C149.759 310.833 149.848 310.818 149.937 310.804C149.981 310.799 150.026 310.794 150.065 310.789C150.154 310.774 150.238 310.764 150.327 310.749H150.332C153.044 310.359 155.721 309.756 158.339 308.945C158.477 308.901 158.616 308.861 158.754 308.817C158.116 305.841 156.802 303.051 154.914 300.664C153.026 298.276 150.615 296.355 147.866 295.047C148.546 294.4 149.016 293.563 149.215 292.646C149.344 292.054 149.354 291.443 149.245 290.848C149.137 290.252 148.912 289.684 148.583 289.176C147.941 288.191 146.935 287.502 145.785 287.258L138.461 285.726C137.282 285.496 136.06 285.741 135.06 286.408C134.061 287.074 133.365 288.108 133.123 289.285C133.049 289.646 133.015 290.014 133.024 290.382C125.972 295.077 120.896 299.945 117.688 305.115Z" fill="#6C63FF"/>
<path d="M139.315 282.833C147.743 282.833 154.575 276.001 154.575 267.574C154.575 259.146 147.743 252.314 139.315 252.314C130.888 252.314 124.056 259.146 124.056 267.574C124.056 276.001 130.888 282.833 139.315 282.833Z" fill="#FFB8B8"/>
<path d="M129.804 280.73C128.177 279.618 126.515 277.482 125.405 275.882C123.935 273.777 122.924 271.387 122.437 268.867C121.949 266.347 121.997 263.752 122.576 261.252C122.761 260.252 123.215 259.321 123.89 258.561C124.608 257.849 125.782 257.512 126.659 258.015C126.42 257.374 126.315 256.691 126.35 256.007C126.385 255.324 126.559 254.655 126.863 254.042C127.479 252.817 128.373 251.753 129.472 250.934C131.575 249.315 134.076 248.296 136.711 247.984C139.346 247.672 142.017 248.079 144.439 249.162C145.392 249.604 143.827 246.193 144.824 246.522C145.815 246.905 146.917 246.886 147.894 246.468C148.833 245.995 151.943 248.802 151.583 247.815C152.295 248.138 152.914 248.636 153.382 249.263C153.849 249.89 154.151 250.625 154.258 251.4C154.365 252.174 154.274 252.963 153.994 253.694C153.714 254.424 153.254 255.071 152.656 255.576C151.869 256.241 150.886 256.623 150.023 257.188C148.512 258.251 147.443 259.83 147.017 261.627C146.591 263.425 146.838 265.316 147.711 266.944C146.803 266.361 145.808 265.929 144.763 265.663C144.238 265.535 143.691 265.534 143.166 265.66C142.642 265.787 142.155 266.036 141.746 266.389C141.404 266.78 141.146 267.236 140.987 267.731C140.829 268.225 140.773 268.746 140.823 269.263C140.857 270.299 141.103 271.319 141.131 272.355C141.212 275.394 142.84 281.172 140.484 282.787C138.624 284.062 132.026 282.248 129.804 280.73Z" fill="#2F2E41"/>
<path d="M399.499 18.4347H0.500896C0.367053 18.4317 0.239693 18.3764 0.146084 18.2807C0.0524751 18.185 6.10352e-05 18.0565 6.10352e-05 17.9226C6.10352e-05 17.7887 0.0524751 17.6602 0.146084 17.5645C0.239693 17.4687 0.367053 17.4135 0.500896 17.4105H399.499C399.633 17.4135 399.76 17.4687 399.854 17.5645C399.947 17.6602 400 17.7887 400 17.9226C400 18.0565 399.947 18.185 399.854 18.2807C399.76 18.3764 399.633 18.4317 399.499 18.4347Z" fill="#CACACA"/>
<path d="M11.7753 11.2656C14.8184 11.2656 17.2853 8.74372 17.2853 5.63281C17.2853 2.52189 14.8184 0 11.7753 0C8.73224 0 6.26532 2.52189 6.26532 5.63281C6.26532 8.74372 8.73224 11.2656 11.7753 11.2656Z" fill="#3F3D56"/>
<path d="M30.8099 11.2656C33.853 11.2656 36.32 8.74372 36.32 5.63281C36.32 2.52189 33.853 0 30.8099 0C27.7668 0 25.2999 2.52189 25.2999 5.63281C25.2999 8.74372 27.7668 11.2656 30.8099 11.2656Z" fill="#3F3D56"/>
<path d="M49.8445 11.2656C52.8876 11.2656 55.3546 8.74372 55.3546 5.63281C55.3546 2.52189 52.8876 0 49.8445 0C46.8015 0 44.3345 2.52189 44.3345 5.63281C44.3345 8.74372 46.8015 11.2656 49.8445 11.2656Z" fill="#3F3D56"/>
<path d="M388.094 3.44539H374.57C374.302 3.43948 374.047 3.32898 373.86 3.13756C373.673 2.94614 373.568 2.68901 373.568 2.42124C373.568 2.15347 373.673 1.89635 373.86 1.70492C374.047 1.5135 374.302 1.40301 374.57 1.39709H388.094C388.362 1.40301 388.617 1.5135 388.804 1.70492C388.991 1.89635 389.096 2.15347 389.096 2.42124C389.096 2.68901 388.991 2.94614 388.804 3.13756C388.617 3.32898 388.362 3.43948 388.094 3.44539Z" fill="#3F3D56"/>
<path d="M388.094 7.28596H374.57C374.302 7.28008 374.047 7.1696 373.86 6.97817C373.673 6.78675 373.568 6.5296 373.568 6.26181C373.568 5.99402 373.673 5.73689 373.86 5.54546C374.047 5.35404 374.302 5.24355 374.57 5.23767H388.094C388.362 5.24355 388.617 5.35404 388.804 5.54546C388.991 5.73689 389.096 5.99402 389.096 6.26181C389.096 6.5296 388.991 6.78675 388.804 6.97817C388.617 7.1696 388.362 7.28008 388.094 7.28596Z" fill="#3F3D56"/>
<path d="M388.094 11.1265H374.57C374.302 11.1206 374.047 11.0101 373.86 10.8187C373.673 10.6273 373.568 10.3701 373.568 10.1023C373.568 9.83454 373.673 9.5774 373.86 9.38598C374.047 9.19455 374.302 9.08407 374.57 9.07819H388.094C388.362 9.08407 388.617 9.19455 388.804 9.38598C388.991 9.5774 389.096 9.83454 389.096 10.1023C389.096 10.3701 388.991 10.6273 388.804 10.8187C388.617 11.0101 388.362 11.1206 388.094 11.1265Z" fill="#3F3D56"/>
<path d="M149.808 191.195C149.486 191.195 149.168 191.13 148.872 191.006C148.429 190.828 148.051 190.521 147.786 190.125C147.521 189.729 147.382 189.261 147.387 188.785V186.369C147.387 185.863 147.185 185.377 146.827 185.019C146.469 184.66 145.983 184.459 145.476 184.458C144.839 184.457 144.227 184.204 143.776 183.753C143.325 183.302 143.072 182.691 143.071 182.053V148.962C143.072 148.324 143.325 147.713 143.776 147.262C144.227 146.811 144.838 146.557 145.476 146.557H255.109C255.747 146.557 256.358 146.811 256.809 147.262C257.26 147.713 257.514 148.324 257.514 148.962V182.053C257.514 182.691 257.26 183.302 256.809 183.753C256.358 184.204 255.747 184.457 255.109 184.458H158.312C158.061 184.457 157.812 184.507 157.58 184.603C157.348 184.699 157.137 184.84 156.96 185.018L151.493 190.485C151.273 190.709 151.011 190.887 150.722 191.009C150.432 191.131 150.122 191.194 149.808 191.195Z" fill="white"/>
<path d="M149.808 191.69C149.421 191.689 149.039 191.612 148.682 191.463C148.149 191.248 147.693 190.878 147.374 190.4C147.054 189.922 146.887 189.359 146.893 188.785V186.369C146.893 185.994 146.743 185.634 146.478 185.368C146.212 185.102 145.852 184.953 145.476 184.952C144.708 184.951 143.971 184.646 143.427 184.102C142.883 183.558 142.578 182.821 142.577 182.053V148.962C142.578 148.193 142.883 147.456 143.427 146.912C143.97 146.369 144.707 146.063 145.476 146.062H255.109C255.878 146.063 256.615 146.369 257.158 146.912C257.702 147.456 258.008 148.193 258.009 148.962V182.053C258.008 182.821 257.702 183.558 257.159 184.102C256.615 184.646 255.878 184.951 255.109 184.952H158.312C158.126 184.952 157.941 184.988 157.769 185.059C157.597 185.131 157.441 185.235 157.31 185.367L151.843 190.834C151.577 191.104 151.26 191.319 150.911 191.466C150.561 191.613 150.186 191.689 149.808 191.69ZM145.476 147.051C144.969 147.051 144.484 147.253 144.125 147.611C143.767 147.969 143.566 148.455 143.565 148.962V182.053C143.566 182.559 143.767 183.045 144.126 183.404C144.484 183.762 144.97 183.963 145.476 183.964C146.114 183.965 146.725 184.218 147.176 184.669C147.627 185.12 147.881 185.732 147.881 186.369V188.785C147.881 189.163 147.994 189.532 148.204 189.846C148.414 190.16 148.712 190.405 149.061 190.55C149.41 190.694 149.794 190.732 150.165 190.658C150.536 190.585 150.876 190.403 151.143 190.136L156.611 184.669C156.834 184.444 157.099 184.267 157.391 184.146C157.683 184.025 157.996 183.963 158.312 183.964H255.109C255.616 183.963 256.102 183.762 256.46 183.404C256.818 183.045 257.02 182.559 257.02 182.053V148.962C257.02 148.455 256.818 147.969 256.46 147.611C256.102 147.253 255.616 147.051 255.109 147.051L145.476 147.051Z" fill="#3F3D56"/>
<path d="M245.688 161.538H156.787C156.448 161.538 156.122 161.403 155.882 161.163C155.642 160.923 155.507 160.597 155.507 160.257C155.507 159.918 155.642 159.592 155.882 159.352C156.122 159.112 156.448 158.977 156.787 158.977H245.688C246.028 158.977 246.353 159.112 246.594 159.352C246.834 159.592 246.969 159.918 246.969 160.257C246.969 160.597 246.834 160.923 246.594 161.163C246.353 161.403 246.028 161.538 245.688 161.538Z" fill="#6C63FF"/>
<path d="M245.525 166.978H156.787C156.448 166.978 156.122 166.843 155.882 166.603C155.642 166.363 155.507 166.037 155.507 165.697C155.507 165.358 155.642 165.032 155.882 164.792C156.122 164.552 156.448 164.417 156.787 164.417H245.525C245.864 164.417 246.19 164.552 246.43 164.792C246.67 165.032 246.805 165.358 246.805 165.697C246.805 166.037 246.67 166.363 246.43 166.603C246.19 166.843 245.864 166.978 245.525 166.978Z" fill="#E6E6E6"/>
<path d="M245.436 172.417H156.787C156.448 172.417 156.122 172.282 155.882 172.042C155.642 171.802 155.507 171.477 155.507 171.137C155.507 170.797 155.642 170.472 155.882 170.231C156.122 169.991 156.448 169.856 156.787 169.856H245.436C245.776 169.856 246.102 169.991 246.342 170.231C246.582 170.472 246.717 170.797 246.717 171.137C246.717 171.477 246.582 171.802 246.342 172.042C246.102 172.282 245.776 172.417 245.436 172.417Z" fill="#E6E6E6"/>
<path d="M385.689 141.421C385.689 142.622 385.649 143.823 385.565 145.014C385.476 146.438 385.323 147.851 385.116 149.255C384.418 153.981 383.085 158.591 381.152 162.96C381.053 163.177 380.954 163.395 380.855 163.612L380.707 163.938C380.658 164.047 380.603 164.156 380.554 164.26C380.485 164.403 380.42 164.541 380.351 164.68C380.267 164.853 380.183 165.026 380.094 165.199C380.084 165.219 380.074 165.243 380.06 165.268C379.985 165.416 379.916 165.56 379.837 165.708C379.823 165.74 379.806 165.771 379.788 165.802C379.704 165.97 379.615 166.143 379.526 166.311C379.427 166.489 379.333 166.672 379.234 166.85C378.997 167.289 378.75 167.724 378.498 168.159C378.424 168.288 378.35 168.416 378.271 168.545C378.201 168.663 378.132 168.782 378.058 168.901C378.009 168.98 377.959 169.064 377.91 169.143C377.831 169.276 377.752 169.405 377.668 169.538C377.485 169.83 377.297 170.121 377.114 170.413H377.109C377.025 170.546 376.936 170.68 376.847 170.808V170.813C376.585 171.209 376.313 171.604 376.042 171.994C376.041 171.994 376.04 171.995 376.04 171.995C376.039 171.995 376.038 171.995 376.038 171.996C376.038 171.996 376.037 171.997 376.037 171.997C376.037 171.998 376.037 171.999 376.037 171.999C375.819 172.316 375.592 172.622 375.369 172.928V172.933C375.221 173.126 375.078 173.324 374.93 173.517C374.811 173.675 374.687 173.838 374.564 173.996C374.539 174.031 374.509 174.06 374.485 174.095V174.1C374.45 174.144 374.416 174.184 374.381 174.228C373.857 174.9 373.317 175.558 372.76 176.2L372.671 176.304C372.641 176.339 372.607 176.373 372.577 176.413C372.528 176.467 372.483 176.522 372.434 176.576C372.389 176.63 372.34 176.685 372.29 176.739C369.388 180.009 366.096 182.912 362.49 185.383C362.01 185.714 361.521 186.035 361.032 186.347C360.908 186.426 360.785 186.505 360.661 186.579C360.627 186.604 360.587 186.629 360.552 186.653C360.483 186.693 360.419 186.732 360.35 186.777C360.286 186.816 360.221 186.856 360.152 186.895C359.89 187.058 359.623 187.217 359.356 187.375C359.292 187.414 359.223 187.454 359.154 187.493C359.089 187.528 359.02 187.568 358.951 187.607C358.951 187.612 358.951 187.612 358.946 187.612H358.941V187.617H358.936C358.605 187.81 358.269 187.998 357.928 188.18C357.745 188.279 357.557 188.383 357.37 188.477C356.945 188.709 356.515 188.932 356.085 189.144C355.931 189.218 355.773 189.292 355.62 189.371C355.492 189.431 355.363 189.495 355.234 189.554C355.195 189.574 355.16 189.589 355.126 189.609C355.017 189.658 354.913 189.708 354.805 189.757C354.686 189.811 354.567 189.866 354.454 189.92C354.32 189.979 354.192 190.039 354.058 190.093C353.564 190.315 353.065 190.528 352.566 190.731C350.777 191.464 348.949 192.098 347.09 192.628C347.006 192.653 346.917 192.678 346.828 192.703C346.032 192.925 345.231 193.128 344.426 193.31C343.017 193.637 341.595 193.904 340.16 194.111H340.151C339.978 194.136 339.81 194.161 339.637 194.185C339.622 194.185 339.607 194.19 339.587 194.19C339.587 194.195 339.587 194.195 339.582 194.19C339.394 194.215 339.202 194.24 339.014 194.264C339.001 194.268 338.988 194.27 338.974 194.269C338.796 194.294 338.614 194.314 338.436 194.334C338.243 194.353 338.05 194.373 337.857 194.393C337.709 194.408 337.561 194.423 337.413 194.437C337.4 194.442 337.386 194.443 337.373 194.442C337.24 194.452 337.106 194.467 336.973 194.477H336.953C336.839 194.487 336.721 194.497 336.607 194.507C335.228 194.615 333.844 194.665 332.441 194.665C330.923 194.665 329.416 194.605 327.928 194.477H327.914C327.592 194.447 327.276 194.418 326.96 194.388C326.876 194.378 326.797 194.373 326.713 194.363C326.698 194.363 326.678 194.358 326.663 194.358C326.638 194.353 326.614 194.353 326.584 194.348C326.571 194.349 326.557 194.347 326.544 194.343C326.436 194.334 326.327 194.319 326.213 194.309L325.843 194.264C325.719 194.25 325.596 194.23 325.472 194.215C325.442 194.21 325.418 194.21 325.388 194.205C325.299 194.195 325.21 194.18 325.121 194.166C325.077 194.161 325.032 194.156 324.993 194.151C324.904 194.136 324.82 194.126 324.731 194.111H324.726C322.014 193.721 319.337 193.118 316.719 192.307C316.581 192.263 316.442 192.223 316.304 192.179C316.299 192.179 316.294 192.174 316.289 192.174C316.25 192.159 316.205 192.149 316.166 192.134C315.795 192.016 315.429 191.892 315.064 191.764C314.559 191.596 314.06 191.413 313.561 191.225C313.428 191.171 313.294 191.121 313.161 191.067C312.889 190.963 312.622 190.854 312.355 190.745C311.901 190.563 311.446 190.37 310.996 190.172C310.576 189.984 310.161 189.797 309.746 189.599C309.736 189.594 309.721 189.594 309.711 189.584C309.617 189.54 309.523 189.495 309.434 189.451H309.429C307.153 188.358 304.958 187.105 302.861 185.699C302.189 185.25 301.527 184.785 300.874 184.306C300.35 183.915 299.836 183.52 299.322 183.115C296.787 181.098 294.439 178.854 292.309 176.413V176.408C292.156 176.24 292.013 176.067 291.864 175.894C291.84 175.869 291.82 175.844 291.8 175.825C291.706 175.711 291.617 175.602 291.523 175.494V175.489C291.4 175.345 291.276 175.197 291.158 175.049C291.128 175.014 291.103 174.985 291.079 174.955V174.95C290.98 174.831 290.886 174.713 290.787 174.589C290.738 174.53 290.693 174.471 290.644 174.411V174.406C290.352 174.041 290.07 173.675 289.789 173.299C289.715 173.2 289.64 173.097 289.561 172.993C289.206 172.513 288.86 172.024 288.523 171.535V171.53C288.395 171.347 288.271 171.159 288.143 170.976C288.019 170.789 287.896 170.601 287.772 170.413C287.649 170.215 287.52 170.022 287.397 169.825L287.382 169.795C287.258 169.607 287.135 169.41 287.016 169.217C286.922 169.059 286.828 168.906 286.734 168.752C286.675 168.649 286.611 168.545 286.552 168.436C286.528 168.403 286.507 168.368 286.487 168.332C286.349 168.09 286.21 167.848 286.072 167.606C285.909 167.324 285.751 167.037 285.593 166.751C285.533 166.632 285.469 166.513 285.405 166.395C285.38 166.355 285.36 166.316 285.341 166.276C285.267 166.138 285.192 165.995 285.123 165.851C285.049 165.713 284.975 165.569 284.901 165.426C284.832 165.288 284.757 165.144 284.688 165.001C284.634 164.892 284.584 164.784 284.53 164.675C284.526 164.666 284.521 164.658 284.515 164.65C284.491 164.596 284.466 164.546 284.446 164.497C284.44 164.489 284.435 164.481 284.431 164.472C284.377 164.364 284.327 164.25 284.273 164.141C284.204 163.998 284.14 163.85 284.07 163.706C284.026 163.607 283.977 163.504 283.932 163.4C283.868 163.257 283.799 163.113 283.739 162.965C283.67 162.817 283.606 162.668 283.542 162.515C283.523 162.478 283.507 162.44 283.492 162.401C283.458 162.332 283.433 162.263 283.403 162.194C283.324 162.011 283.245 161.823 283.171 161.64C283.082 161.433 282.998 161.22 282.919 161.013C282.84 160.82 282.766 160.622 282.692 160.425L282.662 160.355C281.51 157.322 280.637 154.191 280.052 151V150.995C279.723 149.173 279.487 147.335 279.346 145.489C279.341 145.385 279.331 145.286 279.326 145.187C279.237 143.937 279.197 142.682 279.197 141.421C279.197 140.863 279.207 140.309 279.222 139.756C279.567 128.179 283.695 117.034 290.975 108.026C291.133 107.829 291.291 107.631 291.454 107.433C291.617 107.236 291.785 107.043 291.948 106.85C297.366 100.505 304.199 95.5223 311.896 92.3028C319.594 89.0832 327.939 87.7173 336.261 88.3151C344.583 88.9129 352.648 91.4576 359.806 95.7443C366.964 100.031 373.014 105.939 377.47 112.993C377.712 113.379 377.954 113.769 378.186 114.16C378.424 114.555 378.651 114.951 378.878 115.351C383.356 123.31 385.702 132.29 385.689 141.421Z" fill="#F2F2F2"/>
<path d="M334.557 106.595C325.802 108.842 316.829 110.137 307.796 110.457C306.429 110.532 305.06 110.523 303.695 110.43C300.696 110.177 298.127 109.235 295.265 108.719C293.89 108.472 292.357 108.292 290.972 108.025C291.292 107.628 291.618 107.236 291.95 106.849C294.936 107.101 297.969 107.927 300.991 108.31C306.128 108.964 311.884 108.235 315.778 106.437C317.668 105.565 319.115 104.476 320.998 103.599C321.254 103.468 321.531 103.383 321.817 103.348C322.36 103.332 322.896 103.471 323.363 103.749C326.521 105.344 331.108 106.64 335.364 105.927C335.682 106.175 335.079 106.458 334.557 106.595Z" fill="white"/>
<path d="M353.394 112.207C353.433 112.2 353.472 112.194 353.511 112.187C353.348 112.086 353.194 111.97 353.051 111.841L353.394 112.207Z" fill="white"/>
<path d="M378.877 115.353C377.099 115.495 375.312 115.601 373.516 115.67C372.15 115.744 370.78 115.735 369.416 115.642C366.416 115.389 363.847 114.447 360.985 113.932C358.363 113.461 355.176 113.234 353.511 112.188C357.815 111.443 362.273 112.959 366.711 113.523C370.3 113.965 373.939 113.785 377.467 112.992C377.959 113.765 378.429 114.552 378.877 115.353Z" fill="white"/>
<path d="M326.438 164.72C335.271 164.72 342.431 157.4 342.431 148.371C342.431 139.342 335.271 132.022 326.438 132.022C317.606 132.022 310.446 139.342 310.446 148.371C310.446 157.4 317.606 164.72 326.438 164.72Z" fill="#FFB6B6"/>
<path d="M357.37 188.477C356.945 188.709 356.515 188.932 356.085 189.144C355.931 189.218 355.773 189.292 355.62 189.372C355.491 189.431 355.363 189.495 355.234 189.554C355.195 189.574 355.16 189.589 355.126 189.609C355.017 189.658 354.913 189.708 354.805 189.757C354.686 189.811 354.567 189.866 354.454 189.92C354.32 189.979 354.192 190.039 354.058 190.093C353.564 190.316 353.065 190.528 352.566 190.731C350.777 191.464 348.949 192.098 347.09 192.629C347.006 192.653 346.917 192.678 346.828 192.703C346.032 192.925 345.231 193.128 344.426 193.311C343.017 193.637 341.595 193.904 340.161 194.111H340.151C339.978 194.136 339.81 194.161 339.637 194.185C339.622 194.185 339.607 194.19 339.587 194.19C339.587 194.195 339.587 194.195 339.582 194.19C339.394 194.215 339.202 194.24 339.014 194.264C339.001 194.268 338.988 194.27 338.974 194.269C338.796 194.294 338.614 194.314 338.436 194.334C338.243 194.353 338.05 194.373 337.857 194.393C337.709 194.408 337.561 194.423 337.413 194.437C337.4 194.442 337.386 194.443 337.373 194.442C337.24 194.452 337.106 194.467 336.973 194.477H336.953C336.839 194.487 336.721 194.497 336.607 194.507C335.228 194.615 333.844 194.665 332.441 194.665C330.923 194.665 329.416 194.605 327.928 194.477H327.914C327.592 194.447 327.276 194.418 326.96 194.388C326.876 194.378 326.797 194.373 326.713 194.363C326.698 194.363 326.678 194.358 326.663 194.358C326.638 194.353 326.614 194.353 326.584 194.348C326.571 194.349 326.557 194.347 326.544 194.343C326.436 194.334 326.327 194.319 326.213 194.309L325.843 194.264C325.719 194.25 325.596 194.23 325.472 194.215C325.442 194.21 325.418 194.21 325.388 194.205C325.299 194.195 325.21 194.18 325.121 194.166C325.077 194.161 325.032 194.156 324.993 194.151C324.904 194.136 324.82 194.126 324.731 194.111H324.726C322.014 193.721 319.337 193.118 316.719 192.307C316.581 192.263 316.442 192.223 316.304 192.179C316.942 189.203 318.256 186.413 320.144 184.026C322.032 181.638 324.443 179.717 327.192 178.41C326.512 177.762 326.042 176.925 325.843 176.008C325.714 175.416 325.704 174.805 325.813 174.21C325.921 173.614 326.147 173.046 326.475 172.538C327.117 171.553 328.123 170.864 329.273 170.621L336.597 169.088C337.776 168.859 338.998 169.103 339.998 169.77C340.997 170.436 341.693 171.47 341.935 172.647C342.009 173.008 342.043 173.376 342.034 173.744C349.086 178.439 354.162 183.307 357.37 188.477Z" fill="#6C63FF"/>
<path d="M369.232 141.281C366.514 138.111 365.222 133.905 363.048 130.305C360.875 126.705 357.094 123.483 353.098 124.321C350.344 124.899 348.216 127.329 347.139 130.038C346.061 132.747 345.859 135.735 345.67 138.662C345.737 132.647 341.774 126.816 336.315 124.896C330.856 122.977 324.323 125.118 320.892 129.95C319.395 128.563 317.441 127.773 315.401 127.73C313.36 127.687 311.375 128.395 309.821 129.718C306.753 132.46 306.074 137.68 308.33 141.178C310.587 144.676 315.474 145.979 319.06 144.039L320.327 145.205C319.614 147.701 320.998 150.649 323.324 151.589C325.21 152.351 327.874 152.224 328.579 154.204C329.073 155.587 328.151 157.063 327.17 158.126C326.189 159.189 325.025 160.287 324.907 161.758C324.729 163.977 327.023 165.532 329.107 166C334.134 167.129 339.712 164.801 342.61 160.365C342.665 160.279 342.726 160.193 342.792 160.108C344.417 158.029 345.602 155.64 346.273 153.088C346.945 150.536 347.089 147.874 346.696 145.264C346.533 144.239 346.698 143.476 347.405 143.233C350.46 142.184 359.021 144.387 361.612 146.378C364.203 148.369 366.278 151.003 368.773 153.123C371.269 155.242 374.449 156.877 377.618 156.3C380.156 155.838 382.315 153.995 383.767 151.773C385.219 149.55 386.055 146.96 386.804 144.385C381.192 147.627 373.511 146.27 369.232 141.281Z" fill="#2F2E41"/>
<path d="M40.9347 108.308C40.9347 109.509 40.9743 110.71 41.0583 111.901C41.1473 113.324 41.3005 114.738 41.5081 116.142C42.2057 120.868 43.539 125.478 45.4718 129.847C45.5706 130.064 45.6694 130.281 45.7683 130.499L45.9166 130.825C45.966 130.934 46.0204 131.043 46.0698 131.146C46.139 131.29 46.2032 131.428 46.2724 131.566C46.3564 131.739 46.4404 131.912 46.5294 132.085C46.5393 132.105 46.5492 132.13 46.564 132.155C46.6381 132.303 46.7073 132.446 46.7864 132.594C46.8009 132.627 46.8175 132.658 46.8358 132.688C46.9199 132.856 47.0088 133.029 47.0978 133.197C47.1966 133.375 47.2905 133.558 47.3894 133.736C47.6266 134.176 47.8737 134.611 48.1258 135.046C48.1999 135.174 48.274 135.303 48.3531 135.431C48.4223 135.55 48.4915 135.669 48.5656 135.787C48.6151 135.866 48.6645 135.95 48.7139 136.029C48.793 136.163 48.872 136.291 48.9561 136.425C49.1389 136.716 49.3267 137.008 49.5096 137.299H49.5145C49.5986 137.433 49.6875 137.566 49.7765 137.695V137.7C50.0384 138.095 50.3103 138.491 50.5821 138.881C50.5827 138.881 50.5834 138.881 50.584 138.881C50.5846 138.882 50.5852 138.882 50.5856 138.882C50.5861 138.883 50.5864 138.883 50.5867 138.884C50.5869 138.885 50.587 138.885 50.587 138.886C50.8045 139.202 51.0318 139.509 51.2542 139.815V139.82C51.4025 140.013 51.5458 140.21 51.6941 140.403C51.8127 140.561 51.9363 140.724 52.0598 140.883C52.0845 140.917 52.1142 140.947 52.1389 140.981V140.986C52.1735 141.031 52.2081 141.07 52.2427 141.115C52.7666 141.787 53.3069 142.444 53.8638 143.087L53.9527 143.191C53.9824 143.225 54.017 143.26 54.0466 143.299C54.0961 143.354 54.1405 143.408 54.1899 143.462C54.2344 143.517 54.2839 143.571 54.3333 143.626C57.2359 146.895 60.5272 149.798 64.1338 152.27C64.6132 152.601 65.1025 152.922 65.5918 153.233C65.7154 153.312 65.8389 153.392 65.9625 153.466C65.9971 153.49 66.0366 153.515 66.0712 153.54C66.1404 153.579 66.2047 153.619 66.2738 153.663C66.3381 153.703 66.4023 153.742 66.4715 153.782C66.7335 153.945 67.0004 154.103 67.2673 154.261C67.3315 154.301 67.4007 154.34 67.4699 154.38C67.5341 154.415 67.6033 154.454 67.6725 154.494C67.6725 154.499 67.6725 154.499 67.6775 154.499H67.6824V154.504H67.6873C68.0185 154.696 68.3546 154.884 68.6956 155.067C68.8784 155.166 69.0662 155.27 69.254 155.364C69.6791 155.596 70.1091 155.818 70.539 156.031C70.6923 156.105 70.8504 156.179 71.0036 156.258C71.1321 156.317 71.2606 156.382 71.3891 156.441C71.4287 156.461 71.4633 156.476 71.4978 156.495C71.6066 156.545 71.7104 156.594 71.8191 156.644C71.9377 156.698 72.0563 156.752 72.17 156.807C72.3034 156.866 72.4319 156.925 72.5654 156.98C73.0596 157.202 73.5588 157.415 74.0579 157.617C75.8468 158.351 77.675 158.984 79.534 159.515C79.618 159.54 79.707 159.564 79.7959 159.589C80.5917 159.812 81.3923 160.014 82.1979 160.197C83.6065 160.523 85.0282 160.79 86.4631 160.998H86.473C86.646 161.022 86.814 161.047 86.987 161.072C87.0018 161.072 87.0166 161.077 87.0364 161.077C87.0364 161.082 87.0364 161.082 87.0414 161.077C87.2292 161.102 87.4219 161.126 87.6097 161.151C87.6225 161.155 87.6359 161.156 87.6493 161.156C87.8272 161.181 88.0101 161.2 88.188 161.22C88.3807 161.24 88.5734 161.26 88.7662 161.279C88.9145 161.294 89.0628 161.309 89.211 161.324C89.2237 161.328 89.2372 161.33 89.2506 161.329C89.384 161.339 89.5174 161.354 89.6509 161.363H89.6707C89.7843 161.373 89.9029 161.383 90.0166 161.393C91.3955 161.502 92.7794 161.551 94.183 161.551C95.7003 161.551 97.2076 161.492 98.6953 161.363H98.7101C99.0313 161.334 99.3477 161.304 99.664 161.274C99.748 161.265 99.8271 161.26 99.9111 161.25C99.9259 161.25 99.9457 161.245 99.9605 161.245C99.9852 161.24 100.01 161.24 100.04 161.235C100.053 161.235 100.066 161.234 100.079 161.23C100.188 161.22 100.297 161.205 100.41 161.195L100.781 161.151C100.904 161.136 101.028 161.116 101.152 161.102C101.181 161.097 101.206 161.097 101.236 161.092C101.325 161.082 101.414 161.067 101.503 161.052C101.547 161.047 101.591 161.042 101.631 161.037C101.72 161.022 101.804 161.013 101.893 160.998H101.898C104.61 160.607 107.287 160.004 109.904 159.194C110.043 159.149 110.181 159.11 110.32 159.065C110.324 159.065 110.329 159.06 110.334 159.06C110.374 159.046 110.418 159.036 110.458 159.021C110.829 158.902 111.194 158.779 111.56 158.65C112.064 158.482 112.563 158.299 113.063 158.111C113.196 158.057 113.329 158.008 113.463 157.953C113.735 157.85 114.002 157.741 114.268 157.632C114.723 157.449 115.178 157.256 115.628 157.059C116.048 156.871 116.463 156.683 116.878 156.485C116.888 156.481 116.903 156.481 116.913 156.471C117.006 156.426 117.1 156.382 117.189 156.337H117.194C119.47 155.245 121.665 153.991 123.763 152.586C124.435 152.136 125.097 151.672 125.749 151.192C126.273 150.802 126.787 150.406 127.301 150.001C129.837 147.984 132.184 145.741 134.314 143.299V143.294C134.468 143.126 134.611 142.953 134.759 142.78C134.784 142.756 134.804 142.731 134.823 142.711C134.917 142.598 135.006 142.489 135.1 142.38V142.375C135.224 142.232 135.347 142.084 135.466 141.935C135.496 141.901 135.52 141.871 135.545 141.841V141.837C135.644 141.718 135.738 141.599 135.837 141.476C135.886 141.416 135.93 141.357 135.98 141.298V141.293C136.271 140.927 136.553 140.561 136.835 140.186C136.909 140.087 136.983 139.983 137.062 139.879C137.418 139.4 137.764 138.911 138.1 138.421V138.416C138.229 138.234 138.352 138.046 138.481 137.863C138.604 137.675 138.728 137.487 138.851 137.3C138.975 137.102 139.103 136.909 139.227 136.711L139.242 136.682C139.365 136.494 139.489 136.296 139.608 136.103C139.701 135.945 139.795 135.792 139.889 135.639C139.949 135.535 140.013 135.431 140.072 135.323C140.095 135.289 140.117 135.254 140.136 135.219C140.275 134.977 140.413 134.734 140.552 134.492C140.715 134.211 140.873 133.924 141.031 133.637C141.09 133.519 141.154 133.4 141.219 133.281C141.243 133.242 141.263 133.202 141.283 133.163C141.357 133.024 141.431 132.881 141.5 132.738C141.575 132.599 141.649 132.456 141.723 132.313C141.792 132.174 141.866 132.031 141.935 131.888C141.99 131.779 142.039 131.67 142.094 131.562C142.097 131.553 142.102 131.544 142.108 131.537C142.133 131.482 142.158 131.433 142.178 131.384C142.184 131.376 142.189 131.368 142.192 131.359C142.247 131.25 142.296 131.136 142.351 131.028C142.42 130.884 142.484 130.736 142.553 130.593C142.598 130.494 142.647 130.39 142.692 130.286C142.756 130.143 142.825 130 142.884 129.851C142.953 129.703 143.018 129.555 143.082 129.402C143.101 129.365 143.117 129.327 143.131 129.288C143.166 129.219 143.191 129.15 143.22 129.08C143.299 128.898 143.379 128.71 143.453 128.527C143.542 128.319 143.626 128.107 143.705 127.899C143.784 127.707 143.858 127.509 143.932 127.311L143.962 127.242C145.113 124.209 145.987 121.077 146.571 117.886V117.881C146.901 116.059 147.137 114.222 147.278 112.376C147.283 112.272 147.293 112.173 147.298 112.074C147.387 110.824 147.426 109.568 147.426 108.308C147.426 107.75 147.416 107.196 147.402 106.643C147.057 95.0659 142.928 83.921 135.649 74.913C135.491 74.7153 135.332 74.5176 135.169 74.3199C135.006 74.1222 134.838 73.9295 134.675 73.7368C129.257 67.3919 122.424 62.4089 114.727 59.1894C107.03 55.9698 98.6842 54.6039 90.3624 55.2017C82.0405 55.7995 73.9756 58.3442 66.8177 62.6308C59.6598 66.9175 53.6092 72.826 49.1538 79.88C48.9116 80.2655 48.6695 80.656 48.4372 81.0464C48.1999 81.4418 47.9726 81.8372 47.7452 82.2375C43.2678 90.1962 40.9219 99.1764 40.9347 108.308Z" fill="#F2F2F2"/>
<path d="M92.0666 73.4816C100.822 75.7283 109.795 77.0233 118.828 77.3442C120.194 77.4186 121.564 77.4093 122.928 77.3163C125.928 77.064 128.497 76.1213 131.359 75.6061C132.734 75.3591 134.266 75.1785 135.651 74.9116C135.331 74.5146 135.006 74.1225 134.674 73.7352C131.688 73.9875 128.655 74.8134 125.633 75.1971C120.496 75.8504 114.74 75.1214 110.846 73.3236C108.956 72.4512 107.509 71.3625 105.626 70.4861C105.37 70.3546 105.093 70.2697 104.807 70.2352C104.264 70.2189 103.728 70.358 103.261 70.6362C100.102 72.2308 95.5162 73.5268 91.2593 72.8137C90.942 73.062 91.5448 73.3448 92.0666 73.4816Z" fill="white"/>
<path d="M73.2292 79.0935C73.1903 79.0864 73.1513 79.0809 73.1124 79.0741C73.276 78.9728 73.4299 78.8568 73.5725 78.7275L73.2292 79.0935Z" fill="white"/>
<path d="M47.7463 82.2396C49.5242 82.3817 51.3114 82.4875 53.1079 82.557C54.4739 82.6307 55.8432 82.6214 57.2081 82.5291C60.2076 82.2755 62.7769 81.3341 65.6383 80.8189C68.2606 80.3475 71.4473 80.1205 73.1124 79.0742C68.809 78.3293 64.3503 79.8456 59.9128 80.4099C56.3234 80.8513 52.6848 80.6716 49.1564 79.8788C48.6651 80.6516 48.1951 81.4385 47.7463 82.2396Z" fill="white"/>
<path d="M69.254 155.364C69.6791 155.596 70.109 155.818 70.539 156.031C70.6922 156.105 70.8504 156.179 71.0036 156.258C71.1321 156.317 71.2606 156.382 71.3891 156.441C71.4286 156.461 71.4632 156.476 71.4978 156.495C71.6066 156.545 71.7103 156.594 71.8191 156.644C71.9377 156.698 72.0563 156.752 72.17 156.807C72.3034 156.866 72.4319 156.925 72.5654 156.98C73.0596 157.202 73.5588 157.415 74.0579 157.617C75.8468 158.351 77.675 158.984 79.534 159.515C79.618 159.54 79.707 159.565 79.7959 159.589C80.5917 159.812 81.3923 160.014 82.1979 160.197C83.6065 160.523 85.0282 160.79 86.4631 160.998H86.473C86.646 161.022 86.814 161.047 86.987 161.072C87.0018 161.072 87.0166 161.077 87.0364 161.077C87.0364 161.082 87.0364 161.082 87.0413 161.077C87.2292 161.102 87.4219 161.126 87.6097 161.151C87.6225 161.155 87.6359 161.156 87.6493 161.156C87.8272 161.181 88.01 161.2 88.188 161.22C88.3807 161.24 88.5734 161.26 88.7662 161.279C88.9145 161.294 89.0627 161.309 89.211 161.324C89.2237 161.328 89.2372 161.33 89.2505 161.329C89.384 161.339 89.5174 161.354 89.6509 161.364H89.6706C89.7843 161.373 89.9029 161.383 90.0166 161.393C91.3955 161.502 92.7793 161.551 94.183 161.551C95.7002 161.551 97.2076 161.492 98.6953 161.364H98.7101C99.0313 161.334 99.3476 161.304 99.664 161.275C99.748 161.265 99.827 161.26 99.9111 161.25C99.9259 161.25 99.9457 161.245 99.9605 161.245C99.9852 161.24 100.01 161.24 100.04 161.235C100.053 161.236 100.066 161.234 100.079 161.23C100.188 161.22 100.297 161.205 100.41 161.195L100.781 161.151C100.904 161.136 101.028 161.116 101.152 161.102C101.181 161.097 101.206 161.097 101.236 161.092C101.325 161.082 101.414 161.067 101.502 161.052C101.547 161.047 101.591 161.042 101.631 161.037C101.72 161.023 101.804 161.013 101.893 160.998H101.898C104.61 160.607 107.287 160.004 109.904 159.194C110.043 159.149 110.181 159.11 110.32 159.065C109.681 156.089 108.368 153.3 106.48 150.912C104.592 148.525 102.18 146.603 99.4317 145.296C100.112 144.648 100.582 143.812 100.781 142.894C100.909 142.303 100.919 141.692 100.811 141.096C100.702 140.501 100.477 139.933 100.148 139.425C99.507 138.44 98.5008 137.75 97.351 137.507L90.0265 135.975C88.8474 135.745 87.6253 135.99 86.6257 136.656C85.6262 137.323 84.9301 138.357 84.6888 139.533C84.6141 139.894 84.5809 140.262 84.59 140.631C77.5373 145.326 72.4616 150.194 69.254 155.364Z" fill="#6C63FF"/>
<path d="M98.2299 131.031C108.076 131.031 116.058 123.049 116.058 113.203C116.058 103.356 108.076 95.3741 98.2299 95.3741C88.3836 95.3741 80.4016 103.356 80.4016 113.203C80.4016 123.049 88.3836 131.031 98.2299 131.031Z" fill="#9E616A"/>
<path d="M95.6965 130.078C91.2331 131.283 86.3125 129.681 82.8293 126.641C79.3461 123.601 77.1672 119.293 75.9118 114.843C74.9923 111.585 74.5563 107.967 76.0073 104.908C77.4583 101.849 81.3633 99.7847 84.3761 101.33C82.5175 99.1647 83.446 95.5833 85.6167 93.731C87.7873 91.8786 90.7679 91.3475 93.6067 91.0572C97.7266 90.6359 101.982 90.5887 105.903 91.9234C109.823 93.2581 113.385 96.1762 114.612 100.132C115.865 100.715 117.276 100.866 118.625 100.562C119.973 100.258 121.182 99.5145 122.063 98.4493C122.29 99.6727 122.108 100.937 121.544 102.046C120.98 103.156 120.067 104.048 118.945 104.586L124.951 102.639C125.984 104.825 124.174 107.532 121.86 108.232C119.545 108.932 117.046 108.167 114.85 107.155C112.653 106.143 110.524 104.864 108.138 104.47C105.752 104.075 102.95 104.842 101.846 106.994C101.268 108.121 101.238 109.441 100.902 110.662C100.567 111.884 99.7165 113.15 98.4538 113.25C97.6561 113.313 96.875 112.888 96.0794 112.975C95.5912 113.071 95.1417 113.308 94.7857 113.655C94.4298 114.003 94.1831 114.447 94.0756 114.933C93.8776 115.908 93.8751 116.912 94.0685 117.888L95.5943 129.551L95.6965 130.078Z" fill="#2F2E41"/>
</g>
<defs>
<clipPath id="clip0_28_86">
<rect width="400" height="311.303" fill="white"/>
</clipPath>
</defs>
</svg>
