<svg width="14" height="18" viewBox="0 0 14 18" fill="none" xmlns="http://www.w3.org/2000/svg">
<path d="M9.055 6.75002L8.7955 13.5M5.2045 13.5L4.945 6.75002M12.421 4.34252C12.6775 4.38152 12.9325 4.42277 13.1875 4.46702M12.421 4.34252L11.62 14.7548C11.5873 15.1787 11.3958 15.5746 11.0838 15.8635C10.7717 16.1523 10.3622 16.3126 9.937 16.3125H4.063C3.63782 16.3126 3.22827 16.1523 2.91623 15.8635C2.6042 15.5746 2.41269 15.1787 2.38 14.7548L1.579 4.34252M12.421 4.34252C11.5554 4.21166 10.6853 4.11235 9.8125 4.04477M1.579 4.34252C1.3225 4.38077 1.0675 4.42202 0.8125 4.46627M1.579 4.34252C2.4446 4.21166 3.31468 4.11235 4.1875 4.04477M9.8125 4.04477V3.35777C9.8125 2.47277 9.13 1.73477 8.245 1.70702C7.41521 1.6805 6.58479 1.6805 5.755 1.70702C4.87 1.73477 4.1875 2.47352 4.1875 3.35777V4.04477M9.8125 4.04477C7.94029 3.90008 6.05971 3.90008 4.1875 4.04477" stroke="#6C63FF" stroke-width="1.5" stroke-linecap="round" stroke-linejoin="round"/>
</svg>
