<svg width="352" height="345" viewBox="0 0 352 345" fill="none" xmlns="http://www.w3.org/2000/svg">
<path d="M0.334004 45.8049C-0.548194 48.3325 0.880608 51.2344 3.52532 52.2865L46.6234 69.4309C49.2681 70.4829 52.1273 69.2867 53.0095 66.7591C53.8917 64.2315 52.4629 61.3296 49.8181 60.2775L11.5087 45.0381L24.2876 8.42471C25.1698 5.89708 23.741 2.99517 21.0963 1.94311C18.4516 0.891045 15.5925 2.08723 14.7103 4.61485L0.334004 45.8049ZM198.558 203.196L203.583 204.027C203.594 203.917 203.601 203.807 203.604 203.696L198.558 203.196ZM395.155 362.761C397.328 361.205 397.675 358.118 395.929 355.865C394.182 353.612 391.005 353.047 388.831 354.603L395.155 362.761ZM16.5336 48.5909C19.0559 47.6069 20.1378 44.7381 18.9501 42.1832C17.7624 39.6283 14.7549 38.3548 12.2325 39.3388L16.5336 48.5909ZM31.2304 32.5223C28.6465 33.3642 27.4006 36.1585 28.4477 38.7637C29.4947 41.3689 32.4382 42.7984 35.0221 41.9566L31.2304 32.5223ZM53.8427 36.5363C56.4937 35.8796 57.9433 33.1925 57.0803 30.5346C56.2174 27.8767 53.3687 26.2545 50.7177 26.9112L53.8427 36.5363ZM70.9028 22.8679C68.1829 23.2744 66.4745 25.7988 67.0869 28.5062C67.6993 31.2137 70.4007 33.0791 73.1206 32.6726L70.9028 22.8679ZM92.6577 30.942C95.4331 30.881 97.4693 28.6127 97.2056 25.8755C96.9419 23.1384 94.4781 20.9689 91.7027 21.0299L92.6577 30.942ZM113.062 22.3119C110.283 21.8928 107.847 23.7463 107.621 26.4518C107.395 29.1574 109.464 31.6905 112.242 32.1096L113.062 22.3119ZM131.095 37.0744C133.745 38.1139 136.597 36.9034 137.466 34.3706C138.335 31.8378 136.892 28.9418 134.243 27.9023L131.095 37.0744ZM153.819 38.6761C151.512 36.9787 148.373 37.3441 146.807 39.4923C145.242 41.6404 145.843 44.7579 148.15 46.4553L153.819 38.6761ZM162.296 59.9531C164.108 62.1579 167.294 62.6292 169.414 61.006C171.533 59.3828 171.783 56.2796 169.972 54.0748L162.296 59.9531ZM182.031 72.3445C180.707 69.8472 177.645 68.7326 175.191 69.8549C172.738 70.9772 171.822 73.9114 173.146 76.4086L182.031 72.3445ZM181.045 94.6334C181.974 97.2741 184.858 98.8287 187.487 98.1057C190.115 97.3828 191.493 94.656 190.564 92.0154L181.045 94.6334ZM196.388 112.21C195.759 109.505 193.047 107.654 190.331 108.077C187.615 108.5 185.923 111.035 186.551 113.74L196.388 112.21ZM190.209 133.26C190.609 135.991 193.171 138.045 195.93 137.849C198.689 137.652 200.601 135.28 200.2 132.549L190.209 133.26ZM202.501 152.932C202.277 150.194 199.843 147.993 197.064 148.015C194.285 148.036 192.214 150.273 192.438 153.011L202.501 152.932ZM193.535 172.895C193.619 175.63 195.945 177.942 198.732 178.058C201.519 178.175 203.71 176.052 203.627 173.316L193.535 172.895ZM203.81 193.531C203.84 190.802 201.605 188.406 198.817 188.178C196.029 187.951 193.745 189.978 193.714 192.706L203.81 193.531ZM192.632 211.955C192.393 214.659 194.45 217.201 197.228 217.633C200.005 218.066 202.451 216.224 202.691 213.521L192.632 211.955ZM201.234 232.295C201.413 229.582 199.303 227.081 196.52 226.708C193.738 226.335 191.338 228.232 191.159 230.944L201.234 232.295ZM190.148 250.012C190.042 252.733 192.213 255.185 194.999 255.487C197.785 255.79 200.13 253.83 200.237 251.109L190.148 250.012ZM199.789 269.943C199.809 267.214 197.565 264.825 194.777 264.607C191.989 264.389 189.713 266.425 189.693 269.154L199.789 269.943ZM189.913 288.342C189.999 291.078 192.328 293.387 195.115 293.5C197.901 293.614 200.09 291.488 200.004 288.753L189.913 288.342ZM201.047 307.616C200.825 304.878 198.392 302.675 195.613 302.695C192.834 302.714 190.761 304.95 190.983 307.687L201.047 307.616ZM193.158 327.116C193.557 329.847 196.117 331.903 198.877 331.708C201.636 331.513 203.549 329.142 203.15 326.411L193.158 327.116ZM206.634 344.908C205.995 342.204 203.277 340.363 200.564 340.796C197.85 341.229 196.168 343.771 196.806 346.474L206.634 344.908ZM202.536 365.655C203.513 368.282 206.421 369.786 209.033 369.015C211.644 368.244 212.969 365.49 211.992 362.863L202.536 365.655ZM219.981 379.718C218.517 377.29 215.407 376.348 213.034 377.614C210.662 378.88 209.926 381.874 211.39 384.301L219.981 379.718ZM224.752 400.992C226.85 402.939 230.039 402.957 231.875 401.033C233.711 399.108 233.498 395.969 231.4 394.022L224.752 400.992ZM246.397 403.722C243.768 402.627 240.884 403.773 239.957 406.282C239.03 408.792 240.41 411.714 243.039 412.809L246.397 403.722ZM263.739 417.643C266.527 417.857 268.8 415.817 268.816 413.088C268.831 410.358 266.584 407.972 263.796 407.759L263.739 417.643ZM281.933 406.976C279.212 407.379 277.5 409.901 278.109 412.609C278.718 415.317 281.417 417.186 284.138 416.783L281.933 406.976ZM303.386 412.363C305.99 411.572 307.292 408.805 306.295 406.185C305.298 403.564 302.379 402.081 299.775 402.872L303.386 412.363ZM317.098 396.565C314.605 397.611 313.596 400.51 314.845 403.04C316.094 405.57 319.127 406.773 321.62 405.727L317.098 396.565ZM338.965 397.649C341.364 396.427 342.156 393.451 340.735 391.001C339.314 388.55 336.218 387.554 333.819 388.775L338.965 397.649ZM350.092 379.882C347.772 381.232 347.145 384.257 348.691 386.639C350.237 389.021 353.371 389.858 355.691 388.509L350.092 379.882ZM371.743 378.679C373.997 377.232 374.494 374.175 372.854 371.851C371.214 369.526 368.056 368.814 365.802 370.261L371.743 378.679ZM381.171 359.999C378.973 361.521 378.58 364.6 380.295 366.876C382.009 369.151 385.181 369.761 387.38 368.238L381.171 359.999ZM7.37928 52.293C10.47 50.9999 13.5214 49.7659 16.5336 48.5909L12.2325 39.3388C9.14673 40.5426 6.02457 41.8052 2.86608 43.1266L7.37928 52.293ZM35.0221 41.9566C41.5029 39.8451 47.7762 38.0391 53.8427 36.5363L50.7177 26.9112C44.407 28.4745 37.911 30.3457 31.2304 32.5223L35.0221 41.9566ZM73.1206 32.6726C79.9492 31.6521 86.4604 31.0782 92.6577 30.942L91.7027 21.0299C85.0363 21.1764 78.1019 21.792 70.9028 22.8679L73.1206 32.6726ZM112.242 32.1096C118.994 33.128 125.273 34.7893 131.095 37.0744L134.243 27.9023C127.602 25.2963 120.536 23.4393 113.062 22.3119L112.242 32.1096ZM148.15 46.4553C153.287 50.2355 158.003 54.7273 162.296 59.9531L169.972 54.0748C165.124 48.1738 159.741 43.0333 153.819 38.6761L148.15 46.4553ZM173.146 76.4086C176.081 81.9454 178.717 88.0167 181.045 94.6334L190.564 92.0154C188.082 84.9597 185.241 78.3991 182.031 72.3445L173.146 76.4086ZM186.551 113.74C187.982 119.893 189.201 126.399 190.209 133.26L200.2 132.549C199.156 125.439 197.887 118.659 196.388 112.21L186.551 113.74ZM192.438 153.011C192.959 159.386 193.325 166.014 193.535 172.895L203.627 173.316C203.412 166.281 203.038 159.486 202.501 152.932L192.438 153.011ZM193.714 192.706C193.678 195.986 193.611 199.316 193.512 202.696L203.604 203.696C203.704 200.259 203.773 196.871 203.81 193.531L193.714 192.706ZM193.533 202.365C193.213 205.598 192.913 208.795 192.632 211.955L202.691 213.521C202.969 210.394 203.266 207.229 203.583 204.027L193.533 202.365ZM191.159 230.944C190.728 237.472 190.391 243.828 190.148 250.012L200.237 251.109C200.477 245.014 200.809 238.743 201.234 232.295L191.159 230.944ZM189.693 269.154C189.644 275.77 189.717 282.166 189.913 288.342L200.004 288.753C199.813 282.712 199.741 276.443 199.789 269.943L189.693 269.154ZM190.983 307.687C191.532 314.472 192.257 320.949 193.158 327.116L203.15 326.411C202.283 320.475 201.581 314.21 201.047 307.616L190.983 307.687ZM196.806 346.474C198.429 353.341 200.336 359.738 202.536 365.655L211.992 362.863C209.961 357.399 208.172 351.417 206.634 344.908L196.806 346.474ZM211.39 384.301C215.272 390.737 219.718 396.319 224.752 400.992L231.4 394.022C227.219 390.142 223.405 385.393 219.981 379.718L211.39 384.301ZM243.039 412.809C249.462 415.484 256.376 417.079 263.739 417.643L263.796 407.759C257.437 407.272 251.651 405.91 246.397 403.722L243.039 412.809ZM284.138 416.783C290.297 415.871 296.714 414.392 303.386 412.363L299.775 402.872C293.495 404.782 287.549 406.144 281.933 406.976L284.138 416.783ZM321.62 405.727C327.232 403.373 333.014 400.679 338.965 397.649L333.819 388.775C328.051 391.712 322.477 394.308 317.098 396.565L321.62 405.727ZM355.691 388.509C360.92 385.467 366.271 382.19 371.743 378.679L365.802 370.261C360.433 373.705 355.197 376.912 350.092 379.882L355.691 388.509ZM387.38 368.238C389.946 366.46 392.538 364.634 395.155 362.761L388.831 354.603C386.252 356.449 383.698 358.248 381.171 359.999L387.38 368.238Z" fill="#6C63FF"/>
</svg>
