<svg width="209" height="183" viewBox="0 0 209 183" fill="none" xmlns="http://www.w3.org/2000/svg">
<path d="M205.097 47.9503C207.789 48.5627 209.48 51.2441 208.873 53.9394C208.267 56.6346 205.594 58.323 202.903 57.7105L205.097 47.9503ZM28.2831 133.905C25.8352 135.175 22.8192 134.215 21.5466 131.76L0.80891 91.7566C-0.463661 89.3018 0.48914 86.2821 2.93703 85.012C5.38493 83.7419 8.40096 84.7023 9.67353 87.1571L28.1071 122.716L63.5655 104.318C66.0134 103.048 69.0294 104.008 70.302 106.463C71.5746 108.918 70.6218 111.937 68.1739 113.207L28.2831 133.905ZM192.38 55.4804C189.672 54.9498 187.901 52.3208 188.425 49.6082C188.95 46.8957 191.57 45.1269 194.279 45.6574L192.38 55.4804ZM172.434 42.1547C175.173 42.4903 177.127 44.9863 176.797 47.7298C176.467 50.4733 173.98 52.4253 171.24 52.0898L172.434 42.1547ZM149.994 50.4189C147.236 50.3325 145.066 48.023 145.147 45.2604C145.228 42.4979 147.529 40.3284 150.287 40.4147L149.994 50.4189ZM127.968 40.9604C130.717 40.7263 133.139 42.769 133.378 45.523C133.617 48.277 131.583 50.6993 128.834 50.9335L127.968 40.9604ZM108.106 54.2048C105.423 54.8452 102.726 53.1847 102.082 50.4959C101.437 47.8072 103.09 45.1085 105.772 44.4681L108.106 54.2048ZM84.3107 51.6882C86.8283 50.5627 89.7839 51.6967 90.9123 54.221C92.0407 56.7454 90.9145 59.7043 88.3968 60.8298L84.3107 51.6882ZM70.5414 71.1921C68.3199 72.8268 65.1928 72.3453 63.5567 70.1166C61.9207 67.888 62.3952 64.7561 64.6167 63.1214L70.5414 71.1921ZM47.8459 78.552C49.6643 76.4769 52.8204 76.2748 54.8953 78.1006C56.9701 79.9263 57.178 83.0886 55.3596 85.1636L47.8459 78.552ZM43.2826 102.07C41.8945 104.456 38.8364 105.259 36.4521 103.864C34.0678 102.468 33.2602 99.4032 34.6482 97.0172L43.2826 102.07ZM24.9366 117.339C25.9369 114.765 28.8322 113.495 31.4034 114.502C33.9746 115.509 35.2481 118.412 34.2478 120.986L24.9366 117.339ZM202.903 57.7105C199.342 56.9002 195.834 56.1569 192.38 55.4804L194.279 45.6574C197.835 46.354 201.442 47.1183 205.097 47.9503L202.903 57.7105ZM171.24 52.0898C163.876 51.1876 156.795 50.6318 149.994 50.4189L150.287 40.4147C157.413 40.6378 164.796 41.219 172.434 42.1547L171.24 52.0898ZM128.834 50.9335C121.532 51.5556 114.624 52.6488 108.106 54.2048L105.772 44.4681C112.812 42.7877 120.212 41.6212 127.968 40.9604L128.834 50.9335ZM88.3968 60.8298C81.9768 63.6999 76.0279 67.1548 70.5414 71.1921L64.6167 63.1214C70.692 58.6507 77.2596 54.8404 84.3107 51.6882L88.3968 60.8298ZM55.3596 85.1636C50.9251 90.224 46.8978 95.8556 43.2826 102.07L34.6482 97.0172C38.567 90.2812 42.9645 84.1224 47.8459 78.552L55.3596 85.1636ZM34.2478 120.986C32.9982 124.202 31.8295 127.532 30.7424 130.977L21.2155 127.944C22.3652 124.3 23.6053 120.765 24.9366 117.339L34.2478 120.986Z" fill="#6C63FF"/>
</svg>
