<svg width="33" height="32" viewBox="0 0 33 32" fill="none" xmlns="http://www.w3.org/2000/svg">
<path d="M13.3152 8.53167C15.3002 6.82333 18.5209 6.82333 20.5058 8.53167C22.4925 10.24 22.4925 13.01 20.5058 14.7183C20.1617 15.0167 19.777 15.2617 19.3701 15.455C18.1073 16.0567 16.9122 17.12 16.9122 18.5V19.75M32.1664 16C32.1664 17.9698 31.7718 19.9204 31.0051 21.7403C30.2385 23.5601 29.1147 25.2137 27.6981 26.6066C26.2814 27.9995 24.5996 29.1044 22.7487 29.8582C20.8978 30.612 18.914 31 16.9105 31C14.9071 31 12.9233 30.612 11.0724 29.8582C9.22144 29.1044 7.53965 27.9995 6.12301 26.6066C4.70637 25.2137 3.58263 23.5601 2.81595 21.7403C2.04927 19.9204 1.65466 17.9698 1.65466 16C1.65466 12.0218 3.26197 8.20644 6.12301 5.3934C8.98404 2.58035 12.8644 1 16.9105 1C20.9567 1 24.837 2.58035 27.6981 5.3934C30.5591 8.20644 32.1664 12.0218 32.1664 16ZM16.9105 24.75H16.9241V24.7633H16.9105V24.75Z" stroke="#6C63FF" stroke-width="1.5" stroke-linecap="round" stroke-linejoin="round"/>
</svg>
