<svg width="211" height="179" viewBox="0 0 211 179" fill="none" xmlns="http://www.w3.org/2000/svg">
<path d="M4.11426 40.8782C1.39651 41.3674 -0.410103 43.9671 0.079079 46.6848C0.56826 49.4026 3.16799 51.2092 5.88574 50.72L4.11426 40.8782ZM180.518 136.812C182.912 138.188 185.968 137.362 187.344 134.967L209.758 95.947C211.134 93.5526 210.308 90.4964 207.913 89.1209C205.519 87.7455 202.463 88.5716 201.087 90.966L181.163 125.651L146.478 105.727C144.084 104.351 141.028 105.177 139.652 107.572C138.277 109.966 139.103 113.022 141.497 114.398L180.518 136.812ZM14.8932 49.2139C17.6224 48.7933 19.494 46.24 19.0734 43.5107C18.6529 40.7815 16.0995 38.91 13.3703 39.3305L14.8932 49.2139ZM32.0386 36.9877C29.2896 37.2498 27.2736 39.6907 27.5356 42.4396C27.7976 45.1886 30.2385 47.2046 32.9875 46.9426L32.0386 36.9877ZM51.1305 45.8322C53.891 45.7636 56.0733 43.4701 56.0046 40.7095C55.936 37.9489 53.6425 35.7667 50.8819 35.8353L51.1305 45.8322ZM69.814 36.1508C67.0578 35.9822 64.6867 38.0799 64.5181 40.8362C64.3495 43.5925 66.4472 45.9635 69.2035 46.1321L69.814 36.1508ZM87.0682 48.1451C89.7912 48.6045 92.3709 46.7695 92.8303 44.0465C93.2897 41.3236 91.4547 38.7438 88.7317 38.2844L87.0682 48.1451ZM107.366 42.6488C104.726 41.8404 101.93 43.3256 101.122 45.9661C100.314 48.6066 101.799 51.4024 104.439 52.2107L107.366 42.6488ZM120.944 58.662C123.427 59.869 126.419 58.834 127.626 56.3504C128.833 53.8667 127.798 50.8748 125.315 49.6678L120.944 58.662ZM141.94 59.6079C139.705 57.9862 136.578 58.4833 134.956 60.7184C133.335 62.9534 133.832 66.08 136.067 67.7017L141.94 59.6079ZM149.3 79.2796C151.205 81.2786 154.37 81.3548 156.369 79.4497C158.368 77.5446 158.445 74.3796 156.539 72.3806L149.3 79.2796ZM168.619 87.4945C167.082 85.1999 163.977 84.5854 161.682 86.1218C159.388 87.6582 158.773 90.7638 160.31 93.0584L168.619 87.4945ZM169.03 108.531C170.208 111.028 173.188 112.098 175.685 110.92C178.183 109.742 179.252 106.762 178.074 104.264L169.03 108.531ZM185.106 122.029C184.245 119.405 181.42 117.976 178.796 118.837C176.172 119.698 174.743 122.523 175.604 125.147L185.106 122.029ZM5.88574 50.72C8.92785 50.1725 11.9303 49.6705 14.8932 49.2139L13.3703 39.3305C10.322 39.8003 7.23659 40.3162 4.11426 40.8782L5.88574 50.72ZM32.9875 46.9426C39.2344 46.3472 45.2817 45.9776 51.1305 45.8322L50.8819 35.8353C44.7841 35.9869 38.5027 36.3716 32.0386 36.9877L32.9875 46.9426ZM69.2035 46.1321C75.4214 46.5125 81.3755 47.1847 87.0682 48.1451L88.7317 38.2844C82.6664 37.2612 76.3597 36.5512 69.814 36.1508L69.2035 46.1321ZM104.439 52.2107C110.271 53.996 115.771 56.148 120.944 58.662L125.315 49.6678C119.652 46.9159 113.667 44.5777 107.366 42.6488L104.439 52.2107ZM136.067 67.7017C140.82 71.1503 145.23 75.0086 149.3 79.2796L156.539 72.3806C152.053 67.6726 147.185 63.414 141.94 59.6079L136.067 67.7017ZM160.31 93.0584C163.509 97.8358 166.417 102.991 169.03 108.531L178.074 104.264C175.261 98.3005 172.11 92.7085 168.619 87.4945L160.31 93.0584ZM175.604 125.147C176.523 127.947 177.382 130.825 178.182 133.782L187.835 131.172C186.992 128.051 186.082 125.003 185.106 122.029L175.604 125.147Z" fill="#6C63FF"/>
</svg>
